<?xml version="1.0" standalone="no"?><!DOCTYPE svg PUBLIC "-//W3C//DTD SVG 1.1//EN" "http://www.w3.org/Graphics/SVG/1.1/DTD/svg11.dtd"><svg t="1656013673920" class="icon" viewBox="0 0 1024 1024" version="1.1" xmlns="http://www.w3.org/2000/svg" p-id="4628" xmlns:xlink="http://www.w3.org/1999/xlink" width="200" height="200"><defs><style type="text/css"></style></defs><path d="M512 912.695652c221.295304 0 400.695652-179.400348 400.695652-400.695652S733.295304 111.304348 512 111.304348 111.304348 290.704696 111.304348 512s179.400348 400.695652 400.695652 400.695652z" fill="#0B77E3" fill-opacity=".2" p-id="4629"></path><path d="M200.503652 495.304348h-15.649391l178.487652-261.787826c0.166957-0.26713 0.345043-0.52313 0.534261-0.779131l2.893913-4.251826 4.173913-0.222608a10.429217 10.429217 0 0 1 2.649043-0.144696l409.488696-22.138435a10.618435 10.618435 0 0 1 2.381913-0.122435l10.863305-0.589913-0.456348 10.952348a10.462609 10.462609 0 0 1-0.111305 2.693565L784.239304 495.304348h-6.177391L442.790957 819.010783l-2.615653-18.66574L200.503652 495.304348z m28.304696 0l205.234087 261.197913L397.467826 495.304348H228.808348z m188.026435-22.26087h101.932521l-61.618087-90.37913-49.708521 23.262609 9.394087 67.116521z m-22.483479 0l-8.013913-57.232695L264.080696 473.043478H394.351304z m-28.516174-203.675826L234.195478 462.469565l148.925218-69.709913L365.824 269.356522z m38.37774 113.497044l40.225391-18.832696-53.949218-79.126261 13.723827 97.958957zM746.017391 495.304348h-197.787826l-75.353043 263.724522L746.017391 495.304348z m-291.506087 246.928695l70.566957-246.928695H419.951304l34.571131 246.928695zM541.829565 467.366957l64.189218-70.533566-77.089392-47.749565-51.355826 24.041739 64.256 94.241392z m79.437913-87.27374l117.715479-129.346782-185.989566 87.062261 68.274087 42.284521z m107.798261 92.961392l-103.791304-64.300522-58.523826 64.300522h162.31513z m34.03687-5.10887l9.193739-220.738782-131.784348 144.806956 122.590609 75.909565zM408.865391 248.509217l121.544348 75.286261 197.676522-92.549565-319.22087 17.252174z m55.997218 105.96174l41.460869-19.400348-94.675478-58.657392 53.214609 78.05774z" fill="#40A0FF" p-id="4630"></path><path d="M205.913043 512a27.826087 27.826087 0 1 1 0-55.652174 27.826087 27.826087 0 0 1 0 55.652174z m333.913044 0a27.826087 27.826087 0 1 1 0-55.652174 27.826087 27.826087 0 0 1 0 55.652174z m233.73913 0a27.826087 27.826087 0 1 1 0-55.652174 27.826087 27.826087 0 0 1 0 55.652174z m11.130435-267.130435a27.826087 27.826087 0 1 1 0-55.652174 27.826087 27.826087 0 0 1 0 55.652174z m-411.826087 22.26087a27.826087 27.826087 0 1 1 0-55.652174 27.826087 27.826087 0 0 1 0 55.652174z m77.913044 556.521739a27.826087 27.826087 0 1 1 0-55.652174 27.826087 27.826087 0 0 1 0 55.652174z" fill="#FFFFFF" p-id="4631"></path><path d="M205.913043 534.26087a50.086957 50.086957 0 1 1 0-100.173913 50.086957 50.086957 0 0 1 0 100.173913z m0-22.26087a27.826087 27.826087 0 1 0 0-55.652174 27.826087 27.826087 0 0 0 0 55.652174z m333.913044 22.26087a50.086957 50.086957 0 1 1 0-100.173913 50.086957 50.086957 0 0 1 0 100.173913z m0-22.26087a27.826087 27.826087 0 1 0 0-55.652174 27.826087 27.826087 0 0 0 0 55.652174z m233.73913 22.26087a50.086957 50.086957 0 1 1 0-100.173913 50.086957 50.086957 0 0 1 0 100.173913z m0-22.26087a27.826087 27.826087 0 1 0 0-55.652174 27.826087 27.826087 0 0 0 0 55.652174z m11.130435-244.869565a50.086957 50.086957 0 1 1 0-100.173913 50.086957 50.086957 0 0 1 0 100.173913z m0-22.26087a27.826087 27.826087 0 1 0 0-55.652174 27.826087 27.826087 0 0 0 0 55.652174z m-411.826087 44.521739a50.086957 50.086957 0 1 1 0-100.173913 50.086957 50.086957 0 0 1 0 100.173913z m0-22.260869a27.826087 27.826087 0 1 0 0-55.652174 27.826087 27.826087 0 0 0 0 55.652174z m77.913044 578.782608a50.086957 50.086957 0 1 1 0-100.173913 50.086957 50.086957 0 0 1 0 100.173913z m0-22.260869a27.826087 27.826087 0 1 0 0-55.652174 27.826087 27.826087 0 0 0 0 55.652174z" fill="#005CB9" p-id="4632"></path><path d="M678.956522 883.545043A144.217043 144.217043 0 0 0 779.130435 923.826087c38.878609 0 74.173217-15.326609 100.173913-40.281044V868.173913h6.945391H879.304348c0-18.465391-14.914783-33.391304-33.302261-33.391304H712.258783A33.313391 33.313391 0 0 0 678.956522 868.173913h-6.945392H678.956522v15.37113z m-21.292522-25.755826A144.027826 144.027826 0 0 1 634.434783 779.130435c0-79.916522 64.768-144.695652 144.695652-144.695652 79.916522 0 144.695652 64.768 144.695652 144.695652a144.027826 144.027826 0 0 1-23.229217 78.658782A55.596522 55.596522 0 0 0 846.002087 812.521739H712.258783a55.56313 55.56313 0 0 0-54.594783 45.267478zM816.027826 812.521739h-73.817043A66.749217 66.749217 0 0 1 712.347826 756.847304v-33.346782A66.82713 66.82713 0 0 1 779.130435 656.695652c36.886261 0 66.782609 29.918609 66.782608 66.80487v33.346782A66.782609 66.782609 0 0 1 816.027826 812.521739z" fill="#A6D2FF" p-id="4633"></path><path d="M678.956522 883.545043A144.217043 144.217043 0 0 0 779.130435 923.826087c38.878609 0 74.173217-15.326609 100.173913-40.281044V868.173913h6.945391H879.304348c0-18.465391-14.914783-33.391304-33.302261-33.391304H712.258783A33.313391 33.313391 0 0 0 678.956522 868.173913h-6.945392H678.956522v15.37113z" fill="#40A0FF" p-id="4634"></path><path d="M729.043478 673.391304m50.086957 0l0 0q50.086957 0 50.086956 50.086957l0 33.391304q0 50.086957-50.086956 50.086957l0 0q-50.086957 0-50.086957-50.086957l0-33.391304q0-50.086957 50.086957-50.086957Z" fill="#FFFFFF" p-id="4635"></path><path d="M612.173913 779.130435c0-92.215652 74.74087-166.956522 166.956522-166.956522s166.956522 74.74087 166.956522 166.956522-74.74087 166.956522-166.956522 166.956522-166.956522-74.74087-166.956522-166.956522z m66.782609 104.414608A144.217043 144.217043 0 0 0 779.130435 923.826087c38.878609 0 74.173217-15.326609 100.173913-40.281044V868.173913h6.945391H879.304348c0-18.465391-14.914783-33.391304-33.302261-33.391304H712.258783A33.313391 33.313391 0 0 0 678.956522 868.173913h-6.945392H678.956522v15.37113z m-21.292522-25.755826A55.56313 55.56313 0 0 1 712.258783 812.521739h133.743304c27.14713 0 49.753043 19.478261 54.594783 45.267478A144.027826 144.027826 0 0 0 923.826087 779.130435c0-79.927652-64.77913-144.695652-144.695652-144.695652-79.927652 0-144.695652 64.77913-144.695652 144.695652 0 29.005913 8.537043 56.019478 23.229217 78.658782zM816.027826 812.521739h-73.817043A66.749217 66.749217 0 0 1 712.347826 756.847304v-33.346782A66.82713 66.82713 0 0 1 779.130435 656.695652c36.886261 0 66.782609 29.918609 66.782608 66.80487v33.346782A66.782609 66.782609 0 0 1 816.027826 812.521739zM734.608696 723.500522v33.346782a44.521739 44.521739 0 1 0 89.043478 0v-33.346782a44.521739 44.521739 0 1 0-89.043478 0z" fill="#005CB9" p-id="4636"></path></svg>