<?xml version="1.0" standalone="no"?><!DOCTYPE svg PUBLIC "-//W3C//DTD SVG 1.1//EN" "http://www.w3.org/Graphics/SVG/1.1/DTD/svg11.dtd"><svg t="1656178924509" class="icon" viewBox="0 0 1024 1024" version="1.1" xmlns="http://www.w3.org/2000/svg" p-id="13854" xmlns:xlink="http://www.w3.org/1999/xlink" width="200" height="200"><defs><style type="text/css"></style></defs><path d="M512 512m-400.695652 0a400.695652 400.695652 0 1 0 801.391304 0 400.695652 400.695652 0 1 0-801.391304 0Z" fill="#0B77E3" fill-opacity=".2" p-id="13855"></path><path d="M155.826087 211.478261m11.130435 0l690.086956 0q11.130435 0 11.130435 11.130435l0 534.260869q0 11.130435-11.130435 11.130435l-690.086956 0q-11.130435 0-11.130435-11.130435l0-534.260869q0-11.130435 11.130435-11.130435Z" fill="#FFFFFF" p-id="13856"></path><path d="M311.652174 189.328696c0-6.210783 5.064348-11.241739 11.130435-11.241739h378.434782a11.130435 11.130435 0 0 1 11.130435 11.241739v22.038261A11.241739 11.241739 0 0 1 701.217391 222.608696H322.782609a11.130435 11.130435 0 0 1-11.130435-11.241739v-22.038261zM701.217391 779.130435h33.391305l20.847304 93.028174a12.04313 12.04313 0 0 1-8.347826 14.046608l-6.533565 1.881044a10.718609 10.718609 0 0 1-13.534609-7.635478L701.217391 779.130435z m-383.131826 1.970087L289.925565 879.304348c-1.691826 5.865739-7.824696 9.46087-13.968695 7.94713l-2.893913-0.712348a10.985739 10.985739 0 0 1-8.102957-13.490087L289.391304 779.130435l28.705392 1.970087z" fill="#40A0FF" p-id="13857"></path><path d="M736.52313 812.521739H713.46087l-8.793044-32.834782 23.151304 0.378434 8.68174 32.456348z m-430.191304 0H283.269565l8.870957-33.090782L315.269565 779.130435l-8.937739 33.391304z" fill="#000000" opacity=".1" p-id="13858"></path><path d="M289.391304 189.217391a33.502609 33.502609 0 0 1 33.391305-33.391304h378.434782a33.391304 33.391304 0 0 1 33.391305 33.391304h122.37913A33.413565 33.413565 0 0 1 890.434783 222.597565V756.869565a33.357913 33.357913 0 0 1-33.446957 33.391305h-103.802435l20.21287 75.442087a33.413565 33.413565 0 0 1-23.596522 40.98226 33.402435 33.402435 0 0 1-40.904348-23.696695L684.04313 790.26087H335.36l-24.832 92.68313a33.402435 33.402435 0 0 1-40.915478 23.685565 33.413565 33.413565 0 0 1-23.596522-40.97113L266.217739 790.26087h-99.205565A33.413565 33.413565 0 0 1 133.565217 756.880696V222.608696a33.357913 33.357913 0 0 1 33.446957-33.391305H289.391304z m0 22.26087H167.012174a11.097043 11.097043 0 0 0-11.186087 11.119304V756.869565c0 6.13287 5.008696 11.119304 11.186087 11.119305h624.562087c6.121739-0.022261 9.817043 0 9.817043 0h55.596522A11.097043 11.097043 0 0 0 868.173913 756.880696V222.608696c0-6.13287-5.008696-11.119304-11.186087-11.119305H734.608696a33.502609 33.502609 0 0 1-33.391305 33.391305H322.782609a33.391304 33.391304 0 0 1-33.391305-33.391305z m417.725218 578.860522l23.284869 86.884174a11.130435 11.130435 0 0 0 13.645913 7.95826c5.943652-1.591652 9.46087-7.713391 7.846957-13.712695L730.156522 790.305391l-23.04 0.033392z m-417.892174 0.066782l-21.704348 81.007305c-1.613913 6.010435 1.914435 12.132174 7.846957 13.712695a11.141565 11.141565 0 0 0 13.657043-7.94713l23.262609-86.861913-23.062261 0.089043zM311.652174 189.328696v22.060521A11.130435 11.130435 0 0 0 322.782609 222.608696h378.434782c6.066087 0 11.130435-5.030957 11.130435-11.241739v-22.038261A11.130435 11.130435 0 0 0 701.217391 178.086957H322.782609c-6.066087 0-11.130435 5.030957-11.130435 11.241739z" fill="#005CB9" p-id="13859"></path><path d="M367.304348 489.817043c0-6.188522 5.042087-11.208348 11.097043-11.208347h66.849392c6.121739 0 11.097043 5.008696 11.097043 11.208347v133.409392c0 6.188522-5.042087 11.208348-11.097043 11.208348h-66.849392c-6.121739 0-11.097043-5.008696-11.097043-11.208348V489.817043z m322.782609-55.785739a11.130435 11.130435 0 0 1 11.097043-11.074782h66.849391a11.130435 11.130435 0 0 1 11.097044 11.074782v189.328696a11.130435 11.130435 0 0 1-11.097044 11.074783h-66.849391a11.130435 11.130435 0 0 1-11.097043-11.074783v-189.328696z" fill="#40A0FF" p-id="13860"></path><path d="M367.304348 489.817043c0-6.188522 5.042087-11.208348 11.097043-11.208347h66.849392c6.121739 0 11.097043 5.008696 11.097043 11.208347v133.409392c0 6.188522-5.042087 11.208348-11.097043 11.208348h-66.849392c-6.121739 0-11.097043-5.008696-11.097043-11.208348V489.817043zM389.565217 612.173913h44.52174V500.869565h-44.52174v111.304348z m300.52174-178.142609a11.130435 11.130435 0 0 1 11.097043-11.074782h66.849391a11.130435 11.130435 0 0 1 11.097044 11.074782v189.328696a11.130435 11.130435 0 0 1-11.097044 11.074783h-66.849391a11.130435 11.130435 0 0 1-11.097043-11.074783v-189.328696zM712.347826 612.173913h44.521739V445.217391h-44.521739v166.956522zM567.652174 367.248696a11.130435 11.130435 0 0 1 11.097043-11.074783h66.849392c6.121739 0 11.097043 5.064348 11.097043 11.074783v256.111304a11.130435 11.130435 0 0 1-11.097043 11.074783h-66.849392c-6.121739 0-11.097043-5.064348-11.097043-11.074783v-256.111304zM589.913043 612.173913h44.52174V378.434783h-44.52174v233.73913zM244.869565 400.717913c0-6.144 5.042087-11.152696 11.097044-11.152696h66.849391c6.121739 0 11.097043 4.897391 11.097043 11.152696v222.564174c0 6.144-5.042087 11.152696-11.097043 11.152696h-66.849391A11.063652 11.063652 0 0 1 244.869565 623.282087V400.717913zM267.130435 612.173913h44.521739V411.826087h-44.521739v200.347826z" fill="#005CB9" p-id="13861"></path><path d="M244.869565 656.695652m11.130435 0l189.217391 0q11.130435 0 11.130435 11.130435l0 0q0 11.130435-11.130435 11.130435l-189.217391 0q-11.130435 0-11.130435-11.130435l0 0q0-11.130435 11.130435-11.130435Z" fill="#40A0FF" p-id="13862"></path><path d="M567.652174 656.695652m11.130435 0l189.217391 0q11.130435 0 11.130435 11.130435l0 0q0 11.130435-11.130435 11.130435l-189.217391 0q-11.130435 0-11.130435-11.130435l0 0q0-11.130435 11.130435-11.130435Z" fill="#40A0FF" p-id="13863"></path></svg>