<?xml version="1.0" standalone="no"?><!DOCTYPE svg PUBLIC "-//W3C//DTD SVG 1.1//EN" "http://www.w3.org/Graphics/SVG/1.1/DTD/svg11.dtd"><svg t="1656013700458" class="icon" viewBox="0 0 1024 1024" version="1.1" xmlns="http://www.w3.org/2000/svg" p-id="4950" xmlns:xlink="http://www.w3.org/1999/xlink" width="200" height="200"><defs><style type="text/css"></style></defs><path d="M512 912.695652c221.295304 0 400.695652-179.400348 400.695652-400.695652S733.295304 111.304348 512 111.304348 111.304348 290.704696 111.304348 512s179.400348 400.695652 400.695652 400.695652z" fill="#0B77E3" fill-opacity=".2" p-id="4951"></path><path d="M237.757217 500.869565A133.353739 133.353739 0 0 1 178.086957 389.598609v-66.849392C178.086957 248.987826 237.879652 189.217391 311.652174 189.217391c73.794783 0 133.565217 59.737043 133.565217 133.531826v66.849392c0 46.447304-23.707826 87.351652-59.692521 111.270956h37.420521C484.396522 500.869565 534.26087 550.767304 534.26087 612.173913v89.043478a22.26087 22.26087 0 0 1-22.26087 22.26087H111.304348a22.26087 22.26087 0 0 1-22.26087-22.26087v-89.043478c0-61.462261 49.842087-111.304348 111.304348-111.304348h37.409391z" fill="#005CB9" p-id="4952"></path><path d="M111.304348 612.173913c0-49.174261 39.880348-89.043478 89.043478-89.043478h222.608696c49.174261 0 89.043478 39.958261 89.043478 89.043478v89.043478H111.304348v-89.043478z" fill="#40A0FF" p-id="4953"></path><path d="M200.347826 211.478261m111.304348 0l0 0q111.304348 0 111.304348 111.304348l0 66.782608q0 111.304348-111.304348 111.304348l0 0q-111.304348 0-111.304348-111.304348l0-66.782608q0-111.304348 111.304348-111.304348Z" fill="#FFFFFF" p-id="4954"></path><path d="M638.45287 500.869565A133.353739 133.353739 0 0 1 578.782609 389.598609v-66.849392C578.782609 248.987826 638.575304 189.217391 712.347826 189.217391c73.794783 0 133.565217 59.737043 133.565217 133.531826v66.849392c0 46.447304-23.707826 87.351652-59.692521 111.270956h37.420521C885.092174 500.869565 934.956522 550.767304 934.956522 612.173913v89.043478a22.26087 22.26087 0 0 1-22.26087 22.26087H512a22.26087 22.26087 0 0 1-22.26087-22.26087v-89.043478c0-61.462261 49.842087-111.304348 111.304348-111.304348h37.409392z" fill="#005CB9" p-id="4955"></path><path d="M512 612.173913c0-49.174261 39.880348-89.043478 89.043478-89.043478h222.608696c49.174261 0 89.043478 39.958261 89.043478 89.043478v89.043478H512v-89.043478z" fill="#40A0FF" p-id="4956"></path><path d="M601.043478 211.478261m111.304348 0l0 0q111.304348 0 111.304348 111.304348l0 66.782608q0 111.304348-111.304348 111.304348l0 0q-111.304348 0-111.304348-111.304348l0-66.782608q0-111.304348 111.304348-111.304348Z" fill="#FFFFFF" p-id="4957"></path><path d="M438.105043 589.913043A133.353739 133.353739 0 0 1 378.434783 478.642087v-66.849391C378.434783 338.031304 438.227478 278.26087 512 278.26087c73.794783 0 133.565217 59.737043 133.565217 133.531826v66.849391c0 46.447304-23.707826 87.351652-59.692521 111.270956h37.420521C684.744348 589.913043 734.608696 639.810783 734.608696 701.217391v89.043479a22.26087 22.26087 0 0 1-22.26087 22.260869H311.652174a22.26087 22.26087 0 0 1-22.26087-22.260869v-89.043479c0-61.462261 49.842087-111.304348 111.304348-111.304348h37.409391z" fill="#005CB9" p-id="4958"></path><path d="M311.652174 701.217391c0-49.174261 39.880348-89.043478 89.043478-89.043478h222.608696c49.174261 0 89.043478 39.958261 89.043478 89.043478v89.043479H311.652174v-89.043479z" fill="#A6D2FF" p-id="4959"></path><path d="M400.695652 300.521739m111.304348 0l0 0q111.304348 0 111.304348 111.304348l0 66.782609q0 111.304348-111.304348 111.304347l0 0q-111.304348 0-111.304348-111.304347l0-66.782609q0-111.304348 111.304348-111.304348Z" fill="#FFFFFF" p-id="4960"></path></svg>