<svg xmlns="http://www.w3.org/2000/svg" xmlns:xlink="http://www.w3.org/1999/xlink" width="512" height="512" viewBox="0 0 512 512">
  <defs>
    <clipPath id="clip-path">
      <rect id="Rectangle_28" data-name="Rectangle 28" width="392" height="408" transform="translate(311.091 14)" fill="#fff" stroke="#707070" stroke-width="1"/>
    </clipPath>
    <linearGradient id="linear-gradient" x1="0.948" y1="0.529" x2="0.115" y2="0.506" gradientUnits="objectBoundingBox">
      <stop offset="0" stop-color="#08f"/>
      <stop offset="1" stop-color="#072f6b"/>
    </linearGradient>
    <linearGradient id="linear-gradient-2" x1="0.5" x2="0.5" y2="1" gradientUnits="objectBoundingBox">
      <stop offset="0" stop-color="#02178f"/>
      <stop offset="1" stop-color="#3d5afe"/>
    </linearGradient>
    <linearGradient id="linear-gradient-3" x1="0.953" y1="0.461" x2="0.071" y2="0.467" gradientUnits="objectBoundingBox">
      <stop offset="0" stop-color="#08f"/>
      <stop offset="1" stop-color="#124470"/>
    </linearGradient>
    <linearGradient id="linear-gradient-4" x1="0.427" y1="0.914" x2="0.448" y2="-0.005" gradientUnits="objectBoundingBox">
      <stop offset="0" stop-color="#4882d8"/>
      <stop offset="1" stop-color="#02178f"/>
    </linearGradient>
    <clipPath id="clip-iPhone_13_12_Pro_20">
      <rect width="512" height="512"/>
    </clipPath>
  </defs>
  <g id="iPhone_13_12_Pro_20" data-name="iPhone 13, 12 Pro – 20" clip-path="url(#clip-iPhone_13_12_Pro_20)">
    <g id="Mask_Group_8" data-name="Mask Group 8" transform="translate(-251.091 30)" clip-path="url(#clip-path)">
      <g id="Component_10_1" data-name="Component 10 – 1" transform="translate(300.055 28.773)">
        <g id="Component_7_1" data-name="Component 7 – 1" transform="translate(32.822 0) rotate(7)">
          <path id="Rectangle_23" data-name="Rectangle 23" d="M0,0,50.527.317A19.3,19.3,0,0,1,69.657,19.446l.468,74.577a24.486,24.486,0,0,1-24.7,24.7L.744,118.446Z" transform="translate(141.401 125.013) rotate(38.016)" fill="url(#linear-gradient)"/>
          <path id="Rectangle_20" data-name="Rectangle 20" d="M18.891,0,45.153.165A19.3,19.3,0,0,1,64.282,19.295l1.354,215.67a18.724,18.724,0,0,1-18.891,18.891l-26.262-.165A19.3,19.3,0,0,1,1.354,234.561L0,18.891A18.724,18.724,0,0,1,18.891,0Z" transform="translate(167.202 0) rotate(38.016)" fill="url(#linear-gradient-2)"/>
          <path id="Rectangle_21" data-name="Rectangle 21" d="M18.891,0,40.826.138A19.3,19.3,0,0,1,59.955,19.267l.631,100.558A18.724,18.724,0,0,1,41.7,138.716l-21.935-.138A19.3,19.3,0,0,1,.632,119.449L0,18.891A18.724,18.724,0,0,1,18.891,0Z" transform="translate(85.928 82.441) rotate(38.016)" fill="#08f"/>
          <path id="Rectangle_22" data-name="Rectangle 22" d="M19.679.164,45.826,0a18.728,18.728,0,0,1,18.9,18.89l-.541,86.274a19.3,19.3,0,0,1-19.137,19.129l-26.147.164A18.728,18.728,0,0,1,0,105.568L.542,19.293A19.3,19.3,0,0,1,19.679.164Z" transform="translate(138.351 217.626) rotate(126.996)" fill="#08f"/>
        </g>
        <g id="Component_7_2" data-name="Component 7 – 2" transform="translate(381.547 378.778) rotate(-173)">
          <path id="Rectangle_23-2" data-name="Rectangle 23" d="M0,0,50.527.317A19.3,19.3,0,0,1,69.657,19.446l.468,74.577a24.486,24.486,0,0,1-24.7,24.7L.744,118.446Z" transform="translate(150.119 125.016) rotate(38.016)" fill="url(#linear-gradient-3)"/>
          <path id="Rectangle_20-2" data-name="Rectangle 20" d="M18.891,0,46.812.176A19.3,19.3,0,0,1,65.942,19.3l1.38,219.776a18.724,18.724,0,0,1-18.891,18.891L20.51,257.8A19.3,19.3,0,0,1,1.38,238.667L0,18.891A18.724,18.724,0,0,1,18.891,0Z" transform="translate(173.83 0) rotate(38.016)" fill="url(#linear-gradient-4)"/>
          <path id="Rectangle_21-2" data-name="Rectangle 21" d="M18.891,0,40.826.138A19.3,19.3,0,0,1,59.955,19.267l.631,100.558A18.724,18.724,0,0,1,41.7,138.716l-21.935-.138A19.3,19.3,0,0,1,.632,119.449L0,18.891A18.724,18.724,0,0,1,18.891,0Z" transform="translate(85.928 82.431) rotate(38.016)" fill="#08f"/>
          <path id="Rectangle_22-2" data-name="Rectangle 22" d="M19.679.164,45.826,0a18.728,18.728,0,0,1,18.9,18.89l-.541,86.274a19.3,19.3,0,0,1-19.137,19.129l-26.147.164A18.728,18.728,0,0,1,0,105.568L.542,19.293A19.3,19.3,0,0,1,19.679.164Z" transform="translate(138.351 217.616) rotate(126.996)" fill="#08f"/>
        </g>
      </g>
    </g>
  </g>
</svg>
