<?xml version="1.0" standalone="no"?><!DOCTYPE svg PUBLIC "-//W3C//DTD SVG 1.1//EN" "http://www.w3.org/Graphics/SVG/1.1/DTD/svg11.dtd"><svg t="1655722848563" class="icon" viewBox="0 0 1024 1024" version="1.1" xmlns="http://www.w3.org/2000/svg" p-id="6991" xmlns:xlink="http://www.w3.org/1999/xlink" width="200" height="200"><defs><style type="text/css"></style></defs><path d="M512 512m-400.695652 0a400.695652 400.695652 0 1 0 801.391304 0 400.695652 400.695652 0 1 0-801.391304 0Z" fill="#0B77E3" fill-opacity=".2" p-id="6992"></path><path d="M311.652174 133.565217h400.695652a44.521739 44.521739 0 0 1 44.521739 44.52174v678.956521a44.521739 44.521739 0 0 1-44.521739 44.521739H311.652174a44.521739 44.521739 0 0 1-44.521739-44.521739V178.086957a44.521739 44.521739 0 0 1 44.521739-44.52174z m0 22.26087a22.26087 22.26087 0 0 0-22.26087 22.26087v678.956521a22.26087 22.26087 0 0 0 22.26087 22.26087h400.695652a22.26087 22.26087 0 0 0 22.26087-22.26087V178.086957a22.26087 22.26087 0 0 0-22.26087-22.26087H311.652174z" fill="#005CB9" p-id="6993"></path><path d="M311.652174 155.826087h400.695652a22.26087 22.26087 0 0 1 22.26087 22.26087v578.782608H289.391304V178.086957a22.26087 22.26087 0 0 1 22.26087-22.26087z" fill="#FFFFFF" p-id="6994"></path><path d="M368.729043 453.309217l43.631305-77.734956a11.130435 11.130435 0 0 1 19.255652-0.256l14.625391 24.520348-40.793043 70.054956H378.434783a11.130435 11.130435 0 0 1-9.70574-16.584348z m73.805914-1.669565l91.102608-167.557565a11.130435 11.130435 0 0 1 19.366957-0.333913l98.482087 167.568696a11.130435 11.130435 0 0 1-9.594435 16.773565H452.318609a11.130435 11.130435 0 0 1-9.783652-16.450783zM289.391304 756.869565h445.217392v100.173913a22.26087 22.26087 0 0 1-22.26087 22.26087H311.652174a22.26087 22.26087 0 0 1-22.26087-22.26087v-100.173913z m148.313044-398.369391a15.304348 15.304348 0 1 1 0-30.608696 15.304348 15.304348 0 0 1 0 30.608696z" fill="#0B77E3" p-id="6995"></path><path d="M378.434783 574.608696h122.434782a11.130435 11.130435 0 0 1 11.130435 11.130434V601.043478a11.130435 11.130435 0 0 1-11.130435 11.130435H378.434783a11.130435 11.130435 0 0 1-11.130435-11.130435v-15.304348a11.130435 11.130435 0 0 1 11.130435-11.130434zM378.434783 512h267.130434a11.130435 11.130435 0 0 1 11.130435 11.130435v15.304348a11.130435 11.130435 0 0 1-11.130435 11.130434H378.434783a11.130435 11.130435 0 0 1-11.130435-11.130434V523.130435a11.130435 11.130435 0 0 1 11.130435-11.130435z m184.153043 62.608696h30.363826a11.130435 11.130435 0 0 1 11.130435 11.130434V601.043478a11.130435 11.130435 0 0 1-11.130435 11.130435h-30.363826a11.130435 11.130435 0 0 1-11.130435-11.130435v-15.304348a11.130435 11.130435 0 0 1 11.130435-11.130434z" fill="#40A0FF" p-id="6996"></path><path d="M524.766609 844.966957a27.826087 27.826087 0 1 1-14.402783-53.76 27.826087 27.826087 0 0 1 14.402783 53.76z" fill="#A6D2FF" p-id="6997"></path></svg>