<?xml version="1.0" standalone="no"?><!DOCTYPE svg PUBLIC "-//W3C//DTD SVG 1.1//EN" "http://www.w3.org/Graphics/SVG/1.1/DTD/svg11.dtd"><svg t="1656013688556" class="icon" viewBox="0 0 1024 1024" version="1.1" xmlns="http://www.w3.org/2000/svg" p-id="4789" xmlns:xlink="http://www.w3.org/1999/xlink" width="200" height="200"><defs><style type="text/css"></style></defs><path d="M512 912.695652c221.295304 0 400.695652-179.400348 400.695652-400.695652S733.295304 111.304348 512 111.304348 111.304348 290.704696 111.304348 512s179.400348 400.695652 400.695652 400.695652z" fill="#0B77E3" fill-opacity=".2" p-id="4790"></path><path d="M515.294609 392.481391l365.490087 199.557566a11.130435 11.130435 0 0 1 0 19.533913L515.294609 811.297391a11.130435 11.130435 0 0 1-10.685218 0L140.243478 611.550609a11.130435 11.130435 0 0 1 0-19.522783l364.365913-199.546435a11.130435 11.130435 0 0 1 10.685218 0z" fill="#40A0FF" p-id="4791"></path><path d="M145.597217 601.800348l364.354783 199.724522 365.490087-199.724522L509.952 402.253913 145.597217 601.800348z m375.02887-219.091478l365.490087 199.568695a22.26087 22.26087 0 0 1 0 39.067826L520.637217 821.058783a22.26087 22.26087 0 0 1-21.370434 0L134.90087 621.312a22.26087 22.26087 0 0 1 0-39.045565l364.365913-199.546435a22.26087 22.26087 0 0 1 21.359304-0.022261z" fill="#005CB9" p-id="4792"></path><path d="M515.294609 303.437913l365.490087 199.557565a11.130435 11.130435 0 0 1 0 19.533913L515.294609 722.253913a11.130435 11.130435 0 0 1-10.685218 0L140.243478 522.50713a11.130435 11.130435 0 0 1 0-19.522782l364.365913-199.546435a11.130435 11.130435 0 0 1 10.685218 0z" fill="#A6D2FF" p-id="4793"></path><path d="M145.597217 512.75687l364.354783 199.724521 365.490087-199.724521L509.952 313.210435 145.597217 512.75687z m375.02887-219.091479l365.490087 199.568696a22.26087 22.26087 0 0 1 0 39.067826L520.637217 732.015304a22.26087 22.26087 0 0 1-21.370434 0L134.90087 532.268522a22.26087 22.26087 0 0 1 0-39.045565l364.365913-199.546435a22.26087 22.26087 0 0 1 21.359304-0.022261z" fill="#005CB9" p-id="4794"></path><path d="M515.294609 214.394435l365.490087 199.557565a11.130435 11.130435 0 0 1 0 19.533913L515.294609 633.210435a11.130435 11.130435 0 0 1-10.685218 0L140.243478 433.463652a11.130435 11.130435 0 0 1 0-19.522782l364.365913-199.546435a11.130435 11.130435 0 0 1 10.685218 0z" fill="#FFFFFF" p-id="4795"></path><path d="M498.554435 487.045565a11.586783 11.586783 0 1 1-2.738087 23.017739l-97.558261-11.586782a11.586783 11.586783 0 0 1-9.872696-8.704L367.638261 406.706087a11.586783 11.586783 0 1 1 22.483478-5.609739l18.810435 75.286261 89.61113 10.651826z m118.127304-119.863652L515.561739 345.711304a11.586783 11.586783 0 0 1 4.819478-22.672695l109.145044 23.184695c4.819478 1.01287 8.45913 4.975304 9.093565 9.861566l9.138087 71.457391a11.586783 11.586783 0 0 1-22.995478 2.938435l-8.091826-63.298783z m-62.920348 109.189565a11.586783 11.586783 0 0 1-20.557913 10.707479L469.648696 365.078261a11.586783 11.586783 0 0 1 20.569043-10.707478l63.543652 122.000695z" fill="#005CB9" p-id="4796"></path><path d="M145.597217 423.713391l364.354783 199.724522 365.490087-199.724522L509.952 224.166957 145.597217 423.713391z m375.02887-219.091478l365.490087 199.568696a22.26087 22.26087 0 0 1 0 39.067826L520.637217 642.971826a22.26087 22.26087 0 0 1-21.370434 0L134.90087 443.225043a22.26087 22.26087 0 0 1 0-39.045565l364.365913-199.546435a22.26087 22.26087 0 0 1 21.359304-0.02226z" fill="#005CB9" p-id="4797"></path></svg>