<?xml version="1.0" standalone="no"?><!DOCTYPE svg PUBLIC "-//W3C//DTD SVG 1.1//EN" "http://www.w3.org/Graphics/SVG/1.1/DTD/svg11.dtd"><svg t="1655725348933" class="icon" viewBox="0 0 1024 1024" version="1.1" xmlns="http://www.w3.org/2000/svg" p-id="5287" xmlns:xlink="http://www.w3.org/1999/xlink" width="200" height="200"><defs><style type="text/css"></style></defs><path d="M512 912.695652c221.295304 0 400.695652-179.400348 400.695652-400.695652S733.295304 111.304348 512 111.304348 111.304348 290.704696 111.304348 512s179.400348 400.695652 400.695652 400.695652z" fill="#0875E1" fill-opacity=".2" p-id="5288"></path><path d="M845.590261 464.562087a152.765217 152.765217 0 0 0-87.752348-43.430957 217.633391 217.633391 0 0 0-14.914783-53.76 218.86887 218.86887 0 0 0-46.892521-69.542956 218.86887 218.86887 0 0 0-69.542957-46.892522A220.338087 220.338087 0 0 0 540.861217 233.73913c-5.38713 0-10.729739 0.256-16.027826 0.634435a203.186087 203.186087 0 0 0-69.632 15.927652A218.88 218.88 0 0 0 339.745391 364.744348a74.852174 74.852174 0 0 0-33.502608-7.936 75.353043 75.353043 0 0 0-75.353044 75.353043c0 11.742609 2.771478 22.817391 7.546435 32.723479a131.717565 131.717565 0 0 0-91.314087 70.856347A130.938435 130.938435 0 0 0 133.565217 593.764174c0 69.754435 54.294261 126.664348 122.924522 131.172174l65.113044 0.445217h203.219478l81.185391-0.022261h131.31687a152.709565 152.709565 0 0 0 108.243478-44.866782A152.731826 152.731826 0 0 0 890.434783 572.204522c0-12.566261-1.691826-24.731826-4.563479-36.463305a154.423652 154.423652 0 0 0-40.281043-71.17913z" fill="#FFFFFF" p-id="5289"></path><path d="M845.590261 464.562087a152.765217 152.765217 0 0 0-87.752348-43.430957 217.633391 217.633391 0 0 0-14.914783-53.76 218.86887 218.86887 0 0 0-46.892521-69.542956 218.86887 218.86887 0 0 0-69.542957-46.892522A220.338087 220.338087 0 0 0 540.861217 233.73913c-5.38713 0-10.729739 0.256-16.027826 0.634435a203.186087 203.186087 0 0 0-69.632 15.927652A218.88 218.88 0 0 0 339.745391 364.744348a74.852174 74.852174 0 0 0-33.502608-7.936 75.353043 75.353043 0 0 0-75.353044 75.353043c0 11.742609 2.771478 22.817391 7.546435 32.723479a131.717565 131.717565 0 0 0-91.314087 70.856347A130.938435 130.938435 0 0 0 133.565217 593.764174c0 69.754435 53.804522 126.664348 122.434783 131.172174L734.608696 723.478261c42.184348 0 83.322435-15.293217 110.970434-42.985739A152.731826 152.731826 0 0 0 890.434783 572.204522c0-12.566261-1.691826-24.731826-4.563479-36.463305a154.423652 154.423652 0 0 0-40.281043-71.17913z m-636.961391-32.400696a97.613913 97.613913 0 0 1 119.83026-95.042782 241.14087 241.14087 0 0 1 118.093913-107.319652 224.434087 224.434087 0 0 1 76.688696-17.630609c6.322087-0.445217 12.04313-0.690087 17.619478-0.690087 32.723478 0 64.890435 6.522435 94.297044 18.95513a241.107478 241.107478 0 0 1 76.610782 51.645218 241.129739 241.129739 0 0 1 51.656348 76.621913 238.636522 238.636522 0 0 1 13.612522 43.330782 175.026087 175.026087 0 0 1 84.301913 46.803479c22.216348 22.182957 38.188522 50.342957 46.169044 81.619478 3.417043 13.979826 5.197913 27.859478 5.186782 41.73913a174.970435 174.970435 0 0 1-51.366956 124.015305C828.772174 728.854261 781.690435 745.73913 734.608696 745.73913l-478.608696 0.022261c-81.964522-5.342609-144.695652-70.834087-144.695652-151.997217 0-23.763478 5.487304-46.803478 15.849739-67.862261a154.245565 154.245565 0 0 1 83.144348-75.909565 96.52313 96.52313 0 0 1-1.669565-17.830957z" fill="#005CB9" p-id="5290"></path><path d="M478.608696 487.846957c-0.044522-3.528348 2.726957-7.334957 6.054956-8.448l165.87687-55.596522c3.383652-1.135304 8.926609-1.113043 12.265739 0L828.66087 479.387826a9.46087 9.46087 0 0 1 6.066087 8.492522s0.066783 83.767652-17.741914 179.055304c-17.808696 95.276522-119.674435 147.389217-160.322782 189.818435-37.38713-42.429217-142.514087-91.38087-160.322783-189.818435C478.541913 568.498087 478.608696 487.846957 478.608696 487.846957z" fill="#005CB9" p-id="5291"></path><path d="M715.375304 778.518261c46.102261-39.234783 71.958261-74.050783 79.738435-115.667478 7.590957-40.614957 12.488348-82.142609 15.193044-122.278957a1018.334609 1018.334609 0 0 0 2.025739-43.174956l-155.659131-52.168348-155.648 52.168348c0.022261 1.346783 0.066783 2.760348 0.111305 4.251826a1131.720348 1131.720348 0 0 0 17.118608 161.335652c7.568696 41.783652 32.745739 75.853913 77.890783 113.819826 6.288696 5.286957 12.833391 10.573913 21.192348 17.152 1.446957 1.146435 16.406261 12.855652 20.591304 16.194783a489.48313 489.48313 0 0 1 19.400348 16.072347c22.939826-19.656348 58.523826-48.11687 58.045217-47.705043z" fill="#40A0FF" p-id="5292"></path><path d="M525.501217 520.793043a8.926609 8.926609 0 0 1 5.732174-8.091826l119.652174-41.438608a20.368696 20.368696 0 0 1 11.620174 0l119.652174 41.438608c3.205565 1.113043 5.787826 4.730435 5.743304 8.013913 0 0 0.066783 62.664348-13.056 135.201392-13.133913 72.537043-88.186435 112.194783-118.149565 144.506435-27.547826-32.300522-105.015652-69.565217-118.149565-144.506435-13.122783-74.941217-13.04487-135.123478-13.04487-135.123479z" fill="#005CB9" p-id="5293"></path><path d="M696.609391 737.858783c33.324522-29.284174 51.867826-55.073391 57.399652-85.704348a824.653913 824.653913 0 0 0 11.130435-92.037565 779.397565 779.397565 0 0 0 1.446957-30.419479L656.695652 491.653565l-109.879652 38.043826 0.044522 1.402435a879.593739 879.593739 0 0 0 12.544 121.165913c5.38713 30.753391 23.418435 55.952696 56.008348 84.268522 4.59687 4.006957 9.382957 7.980522 15.504695 12.966956 1.057391 0.868174 12.087652 9.794783 15.193044 12.343653 4.185043 3.428174 7.846957 6.511304 11.097043 9.371826a2046.909217 2046.909217 0 0 1 39.401739-33.357913z" fill="#A6D2FF" p-id="5294"></path><path d="M570.579478 555.074783a11.130435 11.130435 0 0 1 22.26087 0c0 47.193043 7.290435 85.23687 21.648695 114.176a11.130435 11.130435 0 1 1-19.945739 9.894956c-16.038957-32.333913-23.963826-73.705739-23.963826-124.070956zM623.304348 712.347826a11.130435 11.130435 0 1 1 0-22.260869 11.130435 11.130435 0 0 1 0 22.260869z" fill="#005CB9" p-id="5295"></path></svg>