<?xml version="1.0" standalone="no"?><!DOCTYPE svg PUBLIC "-//W3C//DTD SVG 1.1//EN" "http://www.w3.org/Graphics/SVG/1.1/DTD/svg11.dtd"><svg t="1655723902322" class="icon" viewBox="0 0 1024 1024" version="1.1" xmlns="http://www.w3.org/2000/svg" p-id="4465" xmlns:xlink="http://www.w3.org/1999/xlink" width="200" height="200"><defs><style type="text/css"></style></defs><path d="M512 512m-400.695652 0a400.695652 400.695652 0 1 0 801.391304 0 400.695652 400.695652 0 1 0-801.391304 0Z" fill="#0B77E3" opacity=".2" p-id="4466"></path><path d="M155.826087 211.478261m11.130435 0l690.086956 0q11.130435 0 11.130435 11.130435l0 534.260869q0 11.130435-11.130435 11.130435l-690.086956 0q-11.130435 0-11.130435-11.130435l0-534.260869q0-11.130435 11.130435-11.130435Z" fill="#FFFFFF" p-id="4467"></path><path d="M704.667826 779.686957l23.151304 0.378434 24.486957 91.347479a11.108174 11.108174 0 0 1-7.880348 13.612521 11.119304 11.119304 0 0 1-13.634782-7.891478L704.667826 779.686957zM315.280696 779.130435l-26.245566 97.947826a11.141565 11.141565 0 1 1-21.504-5.732174l24.631653-91.91513L315.269565 779.130435zM311.652174 189.328696c0-6.210783 5.064348-11.241739 11.130435-11.241739h378.434782a11.130435 11.130435 0 0 1 11.130435 11.241739v22.038261A11.241739 11.241739 0 0 1 701.217391 222.608696H322.782609a11.130435 11.130435 0 0 1-11.130435-11.241739v-22.038261z m155.826087 489.549913V534.338783A11.130435 11.130435 0 0 1 478.575304 523.130435h66.849392c6.054957 0 11.097043 5.019826 11.097043 11.208348v144.539826A11.130435 11.130435 0 0 1 545.424696 690.086957h-66.849392c-6.054957 0-11.097043-5.019826-11.097043-11.208348z m222.608696 0.100174V378.412522c0-6.032696 4.964174-11.108174 11.097043-11.108174h66.849391c6.054957 0 11.097043 4.975304 11.097044 11.108174v300.566261c0 6.032696-4.964174 11.108174-11.097044 11.108174h-66.849391c-6.054957 0-11.097043-4.975304-11.097043-11.108174z m-445.217392 0.077913v-44.722087c0-6.010435 4.964174-11.030261 11.097044-11.030261h66.849391c6.054957 0 11.097043 4.941913 11.097043 11.01913v44.744348c0 5.999304-4.964174 11.01913-11.097043 11.019131h-66.849391a11.108174 11.108174 0 0 1-11.097044-11.019131z" fill="#409FFF" p-id="4468"></path><path d="M289.391304 189.217391a33.502609 33.502609 0 0 1 33.391305-33.391304h378.434782a33.391304 33.391304 0 0 1 33.391305 33.391304h122.37913A33.413565 33.413565 0 0 1 890.434783 222.597565V756.869565a33.357913 33.357913 0 0 1-33.446957 33.391305h-103.802435l20.21287 75.442087a33.413565 33.413565 0 0 1-23.596522 40.98226 33.402435 33.402435 0 0 1-40.904348-23.696695L684.04313 790.26087H335.36l-24.832 92.68313a33.402435 33.402435 0 0 1-40.915478 23.685565 33.413565 33.413565 0 0 1-23.596522-40.97113L266.217739 790.26087h-99.205565A33.413565 33.413565 0 0 1 133.565217 756.880696V222.608696a33.357913 33.357913 0 0 1 33.446957-33.391305H289.391304z m0 22.26087H167.012174a11.097043 11.097043 0 0 0-11.186087 11.119304V756.869565c0 6.13287 5.008696 11.119304 11.186087 11.119305h624.562087c6.121739-0.022261 9.817043 0 9.817043 0h55.596522A11.097043 11.097043 0 0 0 868.173913 756.880696V222.608696c0-6.13287-5.008696-11.119304-11.186087-11.119305H734.608696a33.502609 33.502609 0 0 1-33.391305 33.391305H322.782609a33.391304 33.391304 0 0 1-33.391305-33.391305z m417.725218 578.860522l23.284869 86.884174a11.130435 11.130435 0 0 0 13.645913 7.95826c5.943652-1.591652 9.46087-7.713391 7.846957-13.712695L730.156522 790.305391l-23.04 0.033392z m-417.892174 0.066782l-21.704348 81.007305c-1.613913 6.010435 1.914435 12.132174 7.846957 13.712695a11.141565 11.141565 0 0 0 13.657043-7.94713l23.262609-86.861913-23.062261 0.089043zM311.652174 189.328696v22.060521A11.130435 11.130435 0 0 0 322.782609 222.608696h378.434782c6.066087 0 11.130435-5.030957 11.130435-11.241739v-22.038261A11.130435 11.130435 0 0 0 701.217391 178.086957H322.782609c-6.066087 0-11.130435 5.030957-11.130435 11.241739z m44.521739 489.661217v-77.957565c0-6.144 4.964174-11.108174 11.097044-11.108174h66.849391c6.054957 0 11.097043 4.975304 11.097043 11.108174v77.957565a11.097043 11.097043 0 0 1-11.097043 11.108174h-66.849391c-6.054957 0-11.097043-4.975304-11.097044-11.108174zM378.434783 667.826087h44.521739v-55.652174h-44.521739v55.652174z m267.130434 0V478.608696h-44.521739v189.217391h44.521739z m-66.782608 11.141565V467.478261c0-6.233043 4.964174-11.119304 11.097043-11.119304h66.849391c6.054957 0 11.097043 4.975304 11.097044 11.119304v211.478261c0 6.233043-4.964174 11.119304-11.097044 11.119304h-66.849391c-6.054957 0-11.097043-4.975304-11.097043-11.119304zM534.26087 667.826087V545.391304h-44.52174v122.434783h44.52174z m-66.782609 11.052522V534.338783A11.130435 11.130435 0 0 1 478.575304 523.130435h66.849392c6.054957 0 11.097043 5.019826 11.097043 11.208348v144.539826A11.130435 11.130435 0 0 1 545.424696 690.086957h-66.849392c-6.054957 0-11.097043-5.019826-11.097043-11.208348zM712.347826 667.826087h44.521739V389.565217h-44.521739v278.26087z m-22.260869 11.152696V378.412522c0-6.032696 4.964174-11.108174 11.097043-11.108174h66.849391c6.054957 0 11.097043 4.975304 11.097044 11.108174v300.566261c0 6.032696-4.964174 11.108174-11.097044 11.108174h-66.849391c-6.054957 0-11.097043-4.975304-11.097043-11.108174zM267.130435 667.826087h44.521739v-22.26087h-44.521739v22.26087z m-22.26087 11.241739v-44.744348c0-5.999304 4.964174-11.01913 11.097044-11.01913h66.849391c6.054957 0 11.097043 4.941913 11.097043 11.01913v44.744348c0 5.999304-4.964174 11.01913-11.097043 11.019131h-66.849391a11.108174 11.108174 0 0 1-11.097044-11.019131z" fill="#005CB9" p-id="4469"></path><path d="M613.62087 340.591304l-47.538087-6.789565a11.130435 11.130435 0 0 1 3.149913-22.038261l89.188174 12.744348-13.000348 78.024348a11.130435 11.130435 0 0 1-21.960348-3.673044l7.012174-42.039652-380.338087 203.942957a11.130435 11.130435 0 0 1-10.518261-19.611826L613.62087 340.591304z" fill="#0B77E3" p-id="4470"></path><path d="M683.720348 881.942261C706.693565 894.408348 737.346783 901.565217 768 901.565217c61.217391 0 122.434783-28.560696 122.434783-70.834087v-28.326956L768 855.151304l-122.434783-52.758261v28.338087c0 21.103304 15.259826 38.789565 38.155131 51.211131z" fill="#40A0FF" p-id="4471"></path><path d="M768 857.043478c67.617391 0 122.434783-37.376 122.434783-83.478261 0-46.102261-54.817391-83.478261-122.434783-83.47826s-122.434783 37.376-122.434783 83.47826c0 46.102261 54.817391 83.478261 122.434783 83.478261z" fill="#A6D2FF" p-id="4472"></path><path d="M768 817.16313c43.030261 0 77.913043-20.357565 77.913043-45.456695s-34.882783-45.445565-77.913043-45.445565-77.913043 20.346435-77.913043 45.445565 34.882783 45.456696 77.913043 45.456695z" fill="#FFFFFF" p-id="4473"></path><path d="M801.391304 898.760348V876.521739c-7.234783 1.224348-14.681043 2.05913-22.260869 2.482087v22.249739a201.104696 201.104696 0 0 0 22.260869-2.493217z m22.26087-5.153391c7.869217-2.337391 15.34887-5.164522 22.260869-8.43687V862.942609c-7.045565 3.250087-14.491826 6.054957-22.260869 8.381217v22.283131z m-66.782609 7.646608v-22.260869a197.531826 197.531826 0 0 1-22.260869-2.470957v22.238609c7.290435 1.224348 14.747826 2.070261 22.260869 2.493217z m-66.782608-16.083478c6.912 3.272348 14.391652 6.099478 22.260869 8.43687v-22.283131a169.48313 169.48313 0 0 1-22.260869-8.381217v22.227478z m-22.26087-13.723826v-21.147826a119.496348 119.496348 0 0 1-22.26087-19.767652v0.200347c0 15.727304 8.470261 29.551304 22.26087 40.715131z m200.347826 0c13.790609-11.163826 22.26087-24.987826 22.26087-40.715131v-0.200347c-6.310957 7.279304-13.801739 13.913043-22.26087 19.767652v21.147826zM623.337739 775.791304a82.899478 82.899478 0 0 1-0.033391-2.226087c0-60.605217 66.192696-105.73913 144.695652-105.73913s144.695652 45.133913 144.695652 105.73913c0 0.745739 0 1.480348-0.033391 2.214957L912.695652 775.791304v54.939826C912.695652 886.706087 844.098783 923.826087 768 923.826087c-34.181565 0-68.485565-7.991652-94.886957-22.316522C642.381913 884.847304 623.304348 860.237913 623.304348 830.73113V775.791304l0.033391-0.01113zM768 857.043478c67.617391 0 122.434783-37.376 122.434783-83.478261 0-46.102261-54.817391-83.478261-122.434783-83.47826s-122.434783 37.376-122.434783 83.47826c0 46.102261 54.817391 83.478261 122.434783 83.478261z m0-17.619478c-53.704348 0-100.173913-27.113739-100.173913-67.717565 0-40.603826 46.469565-67.706435 100.173913-67.706435s100.173913 27.102609 100.173913 67.706435-46.469565 67.717565-100.173913 67.717565z m0-22.26087c43.030261 0 77.913043-20.357565 77.913043-45.456695s-34.882783-45.445565-77.913043-45.445565-77.913043 20.346435-77.913043 45.445565 34.882783 45.456696 77.913043 45.456695z" fill="#005CB9" p-id="4474"></path><path d="M650.329043 804.029217C673.302261 816.495304 703.955478 823.652174 734.608696 823.652174c61.217391 0 122.434783-28.560696 122.434782-70.834087v-28.326957L734.608696 777.238261l-122.434783-52.758261v28.338087c0 21.103304 15.259826 38.789565 38.15513 51.21113z" fill="#40A0FF" p-id="4475"></path><path d="M734.608696 779.130435c67.617391 0 122.434783-37.376 122.434782-83.478261 0-46.102261-54.817391-83.478261-122.434782-83.478261s-122.434783 37.376-122.434783 83.478261c0 46.102261 54.817391 83.478261 122.434783 83.478261z" fill="#A6D2FF" p-id="4476"></path><path d="M734.608696 739.250087c43.030261 0 77.913043-20.357565 77.913043-45.456696s-34.882783-45.445565-77.913043-45.445565-77.913043 20.346435-77.913044 45.445565 34.882783 45.456696 77.913044 45.456696z" fill="#FFFFFF" p-id="4477"></path><path d="M768 820.847304V798.608696c-7.234783 1.224348-14.681043 2.05913-22.26087 2.482087v22.249739a201.104696 201.104696 0 0 0 22.26087-2.493218z m22.26087-5.153391c7.869217-2.337391 15.34887-5.164522 22.260869-8.43687V785.029565c-7.045565 3.250087-14.491826 6.054957-22.260869 8.381218v22.28313z m-66.782609 7.646609v-22.26087a197.531826 197.531826 0 0 1-22.26087-2.470956v22.238608c7.290435 1.224348 14.747826 2.070261 22.26087 2.493218z m-66.782609-16.083479c6.912 3.272348 14.391652 6.099478 22.26087 8.43687v-22.28313a169.48313 169.48313 0 0 1-22.26087-8.381218v22.227478z m-22.260869-13.723826v-21.147826a119.496348 119.496348 0 0 1-22.26087-19.767652v0.200348c0 15.727304 8.470261 29.551304 22.26087 40.71513z m200.347826 0c13.790609-11.163826 22.26087-24.987826 22.260869-40.71513v-0.200348c-6.310957 7.279304-13.801739 13.913043-22.260869 19.767652v21.147826zM589.946435 697.878261a82.899478 82.899478 0 0 1-0.033392-2.226087c0-60.605217 66.192696-105.73913 144.695653-105.739131s144.695652 45.133913 144.695652 105.739131c0 0.745739 0 1.480348-0.033391 2.214956L879.304348 697.878261v54.939826C879.304348 808.793043 810.707478 845.913043 734.608696 845.913043c-34.181565 0-68.485565-7.991652-94.886957-22.316521C608.990609 806.934261 589.913043 782.32487 589.913043 752.818087V697.878261l0.033392-0.011131zM734.608696 779.130435c67.617391 0 122.434783-37.376 122.434782-83.478261 0-46.102261-54.817391-83.478261-122.434782-83.478261s-122.434783 37.376-122.434783 83.478261c0 46.102261 54.817391 83.478261 122.434783 83.478261z m0-17.619478c-53.704348 0-100.173913-27.113739-100.173913-67.717566 0-40.603826 46.469565-67.706435 100.173913-67.706434s100.173913 27.102609 100.173913 67.706434-46.469565 67.717565-100.173913 67.717566z m0-22.26087c43.030261 0 77.913043-20.357565 77.913043-45.456696s-34.882783-45.445565-77.913043-45.445565-77.913043 20.346435-77.913044 45.445565 34.882783 45.456696 77.913044 45.456696z" fill="#005CB9" p-id="4478"></path><path d="M694.850783 726.116174C717.824 738.582261 748.477217 745.73913 779.130435 745.73913c61.217391 0 122.434783-28.560696 122.434782-70.834087v-28.326956L779.130435 699.325217l-122.434783-52.75826v28.338086c0 21.103304 15.259826 38.789565 38.155131 51.211131z" fill="#40A0FF" p-id="4479"></path><path d="M779.130435 701.217391c67.617391 0 122.434783-37.376 122.434782-83.478261 0-46.102261-54.817391-83.478261-122.434782-83.47826s-122.434783 37.376-122.434783 83.47826c0 46.102261 54.817391 83.478261 122.434783 83.478261z" fill="#A6D2FF" p-id="4480"></path><path d="M779.130435 661.337043c43.030261 0 77.913043-20.357565 77.913043-45.456695s-34.882783-45.445565-77.913043-45.445565-77.913043 20.346435-77.913044 45.445565 34.882783 45.456696 77.913044 45.456695z" fill="#FFFFFF" p-id="4481"></path><path d="M812.521739 742.934261V720.695652c-7.234783 1.224348-14.681043 2.05913-22.260869 2.482087v22.249739a201.104696 201.104696 0 0 0 22.260869-2.493217z m22.26087-5.153391c7.869217-2.337391 15.34887-5.164522 22.260869-8.43687V707.116522c-7.045565 3.250087-14.491826 6.054957-22.260869 8.381217v22.283131z m-66.782609 7.646608v-22.260869a197.531826 197.531826 0 0 1-22.26087-2.470957v22.238609c7.290435 1.224348 14.747826 2.070261 22.26087 2.493217z m-66.782609-16.083478c6.912 3.272348 14.391652 6.099478 22.26087 8.43687v-22.283131a169.48313 169.48313 0 0 1-22.26087-8.381217v22.227478z m-22.260869-13.723826v-21.147826a119.496348 119.496348 0 0 1-22.26087-19.767652v0.200347c0 15.727304 8.470261 29.551304 22.26087 40.715131z m200.347826 0c13.790609-11.163826 22.26087-24.987826 22.260869-40.715131v-0.200347c-6.310957 7.279304-13.801739 13.913043-22.260869 19.767652v21.147826zM634.468174 619.965217a82.899478 82.899478 0 0 1-0.033391-2.226087c0-60.605217 66.192696-105.73913 144.695652-105.73913s144.695652 45.133913 144.695652 105.73913c0 0.745739 0 1.480348-0.033391 2.214957L923.826087 619.965217v54.939826C923.826087 730.88 855.229217 768 779.130435 768c-34.181565 0-68.485565-7.991652-94.886957-22.316522C653.512348 729.021217 634.434783 704.411826 634.434783 674.905043V619.965217l0.033391-0.01113zM779.130435 701.217391c67.617391 0 122.434783-37.376 122.434782-83.478261 0-46.102261-54.817391-83.478261-122.434782-83.47826s-122.434783 37.376-122.434783 83.47826c0 46.102261 54.817391 83.478261 122.434783 83.478261z m0-17.619478c-53.704348 0-100.173913-27.113739-100.173913-67.717565 0-40.603826 46.469565-67.706435 100.173913-67.706435s100.173913 27.102609 100.173913 67.706435-46.469565 67.717565-100.173913 67.717565z m0-22.26087c43.030261 0 77.913043-20.357565 77.913043-45.456695s-34.882783-45.445565-77.913043-45.445565-77.913043 20.346435-77.913044 45.445565 34.882783 45.456696 77.913044 45.456695z" fill="#005CB9" p-id="4482"></path></svg>