<?xml version="1.0" standalone="no"?><!DOCTYPE svg PUBLIC "-//W3C//DTD SVG 1.1//EN" "http://www.w3.org/Graphics/SVG/1.1/DTD/svg11.dtd"><svg t="1656013624048" class="icon" viewBox="0 0 1024 1024" version="1.1" xmlns="http://www.w3.org/2000/svg" p-id="4465" xmlns:xlink="http://www.w3.org/1999/xlink" width="200" height="200"><defs><style type="text/css"></style></defs><path d="M512 912.695652c221.295304 0 400.695652-179.400348 400.695652-400.695652S733.295304 111.304348 512 111.304348 111.304348 290.704696 111.304348 512s179.400348 400.695652 400.695652 400.695652z" fill="#0B77E3" fill-opacity=".2" p-id="4466"></path><path d="M311.652174 261.64313C311.652174 178.610087 378.913391 111.304348 461.913043 111.304348 544.901565 111.304348 612.173913 178.598957 612.173913 261.64313v100.018087C612.173913 444.694261 544.912696 512 461.913043 512 378.924522 512 311.652174 444.705391 311.652174 361.661217v-100.018087z" fill="#FFFFFF" p-id="4467"></path><path d="M189.217391 656.695652c0-67.617391 54.79513-122.434783 122.401392-122.434782h300.588521C679.813565 534.26087 734.608696 589.06713 734.608696 656.695652v122.434783H189.217391V656.695652z" fill="#A6D2FF" p-id="4468"></path><path d="M189.217391 656.695652v122.434783h545.391305V656.695652c0-67.628522-54.79513-122.434783-122.401392-122.434782H311.618783C244.012522 534.26087 189.217391 589.078261 189.217391 656.695652z m-22.260869 0c0-79.916522 64.75687-144.695652 144.662261-144.695652h300.588521C692.112696 512 756.869565 576.77913 756.869565 656.695652v122.401391A22.28313 22.28313 0 0 1 734.642087 801.391304H189.184A22.238609 22.238609 0 0 1 166.956522 779.097043V656.695652z m144.695652-395.052522v100.018087C311.652174 444.705391 378.924522 512 461.913043 512 544.912696 512 612.173913 444.68313 612.173913 361.661217v-100.018087C612.173913 178.598957 544.901565 111.304348 461.913043 111.304348 378.913391 111.304348 311.652174 178.621217 311.652174 261.64313z m-22.26087 0C289.391304 166.322087 366.614261 89.043478 461.913043 89.043478 557.200696 89.043478 634.434783 166.310957 634.434783 261.64313v100.018087C634.434783 456.982261 557.211826 534.26087 461.913043 534.26087 366.625391 534.26087 289.391304 456.993391 289.391304 361.661217v-100.018087z" fill="#005CB9" p-id="4469"></path><path d="M740.574609 589.913043A144.11687 144.11687 0 0 1 756.869565 656.695652v144.695652H467.478261V623.293217A33.391304 33.391304 0 0 1 500.791652 589.913043h239.782957z" fill="#000000" opacity=".1" p-id="4470"></path><path d="M512 634.434783m11.130435 0l333.913043 0q11.130435 0 11.130435 11.130434l0 211.478261q0 11.130435-11.130435 11.130435l-333.913043 0q-11.130435 0-11.130435-11.130435l0-211.478261q0-11.130435 11.130435-11.130434Z" fill="#FFFFFF" p-id="4471"></path><path d="M512 645.554087V857.043478c0 6.233043 4.941913 11.119304 11.052522 11.119305h334.068869A11.130435 11.130435 0 0 0 868.173913 857.043478V645.565217a11.01913 11.01913 0 0 0-11.052522-11.130434H523.052522a11.130435 11.130435 0 0 0-11.052522 11.119304z m-22.26087 0A33.391304 33.391304 0 0 1 523.052522 612.173913h334.068869A33.28 33.28 0 0 1 890.434783 645.554087V857.043478a33.391304 33.391304 0 0 1-33.313392 33.391305H523.052522A33.28 33.28 0 0 1 489.73913 857.054609V645.565217z" fill="#005CB9" p-id="4472"></path><path d="M534.26087 678.956522m11.130434 0l44.521739 0q11.130435 0 11.130435 11.130435l0 11.130434q0 11.130435-11.130435 11.130435l-44.521739 0q-11.130435 0-11.130434-11.130435l0-11.130434q0-11.130435 11.130434-11.130435Z" fill="#A6D2FF" p-id="4473"></path><path d="M756.869565 667.826087m11.130435 0l66.782609 0q11.130435 0 11.130434 11.130435l0 33.391304q0 11.130435-11.130434 11.130435l-66.782609 0q-11.130435 0-11.130435-11.130435l0-33.391304q0-11.130435 11.130435-11.130435Z" fill="#A6D2FF" p-id="4474"></path><path d="M534.26087 767.98887A11.097043 11.097043 0 0 1 545.391304 756.869565h33.391305c6.144 0 11.130435 4.930783 11.130434 11.119305v11.152695A11.097043 11.097043 0 0 1 578.782609 790.26087h-33.391305c-6.144 0-11.130435-4.930783-11.130434-11.119305v-11.152695z m0 55.652173c0-6.144 5.042087-11.119304 11.097043-11.119304h66.849391c6.121739 0 11.097043 4.930783 11.097044 11.119304v11.152696c0 6.144-5.042087 11.119304-11.097044 11.119304h-66.849391a11.074783 11.074783 0 0 1-11.097043-11.119304v-11.152696z m111.304347 0c0-6.144 4.953043-11.119304 11.085913-11.119304h100.262957c6.121739 0 11.085913 4.930783 11.085913 11.119304v11.152696a11.097043 11.097043 0 0 1-11.085913 11.119304h-100.262957a11.063652 11.063652 0 0 1-11.085913-11.119304v-11.152696z m-22.260869-55.652173A11.097043 11.097043 0 0 1 634.434783 756.869565h33.391304c6.144 0 11.130435 4.930783 11.130435 11.119305v11.152695A11.097043 11.097043 0 0 1 667.826087 790.26087h-33.391304c-6.144 0-11.130435-4.930783-11.130435-11.119305v-11.152695z m89.043478 0A11.097043 11.097043 0 0 1 723.478261 756.869565h33.391304c6.144 0 11.130435 4.930783 11.130435 11.119305v11.152695A11.097043 11.097043 0 0 1 756.869565 790.26087h-33.391304c-6.144 0-11.130435-4.930783-11.130435-11.119305v-11.152695z m89.043478 0A11.119304 11.119304 0 0 1 812.633043 756.869565h22.038261c6.210783 0 11.241739 4.930783 11.241739 11.119305v11.152695a11.119304 11.119304 0 0 1-11.241739 11.119305h-22.038261c-6.210783 0-11.241739-4.930783-11.241739-11.119305v-11.152695z" fill="#40A0FF" p-id="4475"></path></svg>