<?xml version="1.0" standalone="no"?><!DOCTYPE svg PUBLIC "-//W3C//DTD SVG 1.1//EN" "http://www.w3.org/Graphics/SVG/1.1/DTD/svg11.dtd"><svg t="1656178968022" class="icon" viewBox="0 0 1024 1024" version="1.1" xmlns="http://www.w3.org/2000/svg" p-id="14016" xmlns:xlink="http://www.w3.org/1999/xlink" width="200" height="200"><defs><style type="text/css"></style></defs><path d="M512 912.695652c221.295304 0 400.695652-179.400348 400.695652-400.695652S733.295304 111.304348 512 111.304348 111.304348 290.704696 111.304348 512s179.400348 400.695652 400.695652 400.695652z" fill="#0B77E3" fill-opacity=".2" p-id="14017"></path><path d="M459.108174 407.262609l16.851478 14.536348L335.070609 583.346087l-16.851479-14.536348L459.108174 407.262609z m246.661565 161.691826l-16.985043 14.380522L551.958261 421.654261l16.985043-14.380522L705.78087 568.954435z" fill="#005CB9" p-id="14018"></path><path d="M678.956522 100.129391A11.052522 11.052522 0 0 0 667.792696 89.043478H434.120348A11.074783 11.074783 0 0 0 422.956522 100.129391v322.871652c0 6.121739 4.886261 11.085913 11.163826 11.085914h233.672348A11.074783 11.074783 0 0 0 678.956522 423.001043V100.129391z m22.260869 0v322.871652A33.335652 33.335652 0 0 1 667.792696 456.347826H434.120348A33.313391 33.313391 0 0 1 400.695652 423.001043V100.129391A33.335652 33.335652 0 0 1 434.120348 66.782609h233.672348A33.313391 33.313391 0 0 1 701.217391 100.129391z" fill="#005CB9" p-id="14019"></path><path d="M678.956522 100.129391A11.052522 11.052522 0 0 0 667.792696 89.043478H434.120348A11.074783 11.074783 0 0 0 422.956522 100.129391v322.871652c0 6.121739 4.886261 11.085913 11.163826 11.085914h233.672348A11.074783 11.074783 0 0 0 678.956522 423.001043V100.129391z" fill="#A6D2FF" p-id="14020"></path><path d="M645.565217 133.520696A11.052522 11.052522 0 0 0 634.401391 122.434783H400.729043a11.074783 11.074783 0 0 0-11.163826 11.085913v322.871652c0 6.121739 4.886261 11.085913 11.163826 11.085913h233.672348A11.074783 11.074783 0 0 0 645.565217 456.392348V133.520696z" fill="#FFFFFF" p-id="14021"></path><path d="M512 178.086957a11.130435 11.130435 0 0 1 11.01913-11.130435h44.744348c6.077217 0 11.01913 4.941913 11.019131 11.130435a11.130435 11.130435 0 0 1-11.019131 11.130434h-44.744348a11.052522 11.052522 0 0 1-11.01913-11.130434z m0 33.391304c0-6.144 4.964174-11.130435 11.108174-11.130435h77.957565c6.13287 0 11.108174 4.941913 11.108174 11.130435 0 6.144-4.964174 11.130435-11.108174 11.130435h-77.957565A11.085913 11.085913 0 0 1 512 211.478261z m66.782609 100.173913c0 6.188522-4.285217 11.130435-9.572174 11.130435h-47.638261c-5.398261 0-9.572174-4.986435-9.572174-11.130435 0-6.188522 4.285217-11.130435 9.572174-11.130435h47.638261c5.398261 0 9.572174 4.986435 9.572174 11.130435z m33.391304-33.391304c0 6.188522-4.975304 11.130435-11.108174 11.130434h-77.957565A11.119304 11.119304 0 0 1 512 278.26087c0-6.188522 4.975304-11.130435 11.108174-11.130435h77.957565c6.144 0 11.108174 4.986435 11.108174 11.130435z m-155.826087 33.391304a22.26087 22.26087 0 1 1 0-44.521739 22.26087 22.26087 0 0 1 0 44.521739z m122.434783 77.913043c0 6.188522-4.285217 11.130435-9.572174 11.130435h-47.638261c-5.398261 0-9.572174-4.986435-9.572174-11.130435 0-6.188522 4.285217-11.130435 9.572174-11.130434h47.638261c5.398261 0 9.572174 4.986435 9.572174 11.130434z m33.391304-33.391304c0 6.188522-4.975304 11.130435-11.108174 11.130435h-77.957565A11.119304 11.119304 0 0 1 512 356.173913c0-6.188522 4.975304-11.130435 11.108174-11.130435h77.957565c6.144 0 11.108174 4.986435 11.108174 11.130435z m-155.826087 33.391304a22.26087 22.26087 0 1 1 0-44.521739 22.26087 22.26087 0 0 1 0 44.521739z" fill="#40A0FF" p-id="14022"></path><path d="M422.956522 155.826087m11.130435 0l44.521739 0q11.130435 0 11.130434 11.130435l0 44.521739q0 11.130435-11.130434 11.130435l-44.521739 0q-11.130435 0-11.130435-11.130435l0-44.521739q0-11.130435 11.130435-11.130435Z" fill="#0B77E3" p-id="14023"></path><path d="M645.565217 133.520696A11.052522 11.052522 0 0 0 634.401391 122.434783H400.729043a11.074783 11.074783 0 0 0-11.163826 11.085913v322.871652c0 6.121739 4.886261 11.085913 11.163826 11.085913h233.672348A11.074783 11.074783 0 0 0 645.565217 456.392348V133.520696z m22.26087 0v322.871652A33.335652 33.335652 0 0 1 634.401391 489.73913H400.729043A33.313391 33.313391 0 0 1 367.304348 456.392348V133.520696A33.335652 33.335652 0 0 1 400.729043 100.173913h233.672348A33.313391 33.313391 0 0 1 667.826087 133.520696z" fill="#005CB9" p-id="14024"></path><path d="M656.695652 805.632A144.217043 144.217043 0 0 0 756.869565 845.913043c38.878609 0 74.173217-15.326609 100.173913-40.281043V790.26087h6.945392H857.043478c0-18.465391-14.914783-33.391304-33.302261-33.391305H689.997913A33.313391 33.313391 0 0 0 656.695652 790.26087h-6.945391H656.695652v15.37113z m-21.292522-25.755826A144.027826 144.027826 0 0 1 612.173913 701.217391c0-79.916522 64.768-144.695652 144.695652-144.695652 79.916522 0 144.695652 64.768 144.695652 144.695652a144.027826 144.027826 0 0 1-23.229217 78.658783A55.596522 55.596522 0 0 0 823.741217 734.608696H689.997913a55.56313 55.56313 0 0 0-54.594783 45.267478zM793.766957 734.608696h-73.817044A66.749217 66.749217 0 0 1 690.086957 678.934261v-33.346783A66.82713 66.82713 0 0 1 756.869565 578.782609c36.886261 0 66.782609 29.918609 66.782609 66.804869v33.346783A66.782609 66.782609 0 0 1 793.766957 734.608696z" fill="#A6D2FF" p-id="14025"></path><path d="M756.869565 857.043478c38.878609 0 85.303652-26.457043 111.304348-51.411478V790.26087c0-18.465391-26.045217-44.521739-44.432696-44.52174H689.997913C671.588174 745.73913 645.565217 771.784348 645.565217 790.26087v15.37113C671.565913 830.586435 717.990957 857.043478 756.869565 857.043478z" fill="#40A0FF" p-id="14026"></path><path d="M706.782609 595.478261m50.086956 0l0 0q50.086957 0 50.086957 50.086956l0 33.391305q0 50.086957-50.086957 50.086956l0 0q-50.086957 0-50.086956-50.086956l0-33.391305q0-50.086957 50.086956-50.086956Z" fill="#FFFFFF" p-id="14027"></path><path d="M589.913043 701.217391c0-92.215652 74.74087-166.956522 166.956522-166.956521s166.956522 74.74087 166.956522 166.956521-74.74087 166.956522-166.956522 166.956522-166.956522-74.74087-166.956522-166.956522z m66.782609 104.414609A144.217043 144.217043 0 0 0 756.869565 845.913043c38.878609 0 74.173217-15.326609 100.173913-40.281043V790.26087h6.945392H857.043478c0-18.465391-14.914783-33.391304-33.302261-33.391305H689.997913A33.313391 33.313391 0 0 0 656.695652 790.26087h-6.945391H656.695652v15.37113z m-21.292522-25.755826A55.56313 55.56313 0 0 1 689.997913 734.608696h133.743304c27.14713 0 49.753043 19.478261 54.594783 45.267478A144.027826 144.027826 0 0 0 901.565217 701.217391c0-79.927652-64.77913-144.695652-144.695652-144.695652-79.927652 0-144.695652 64.77913-144.695652 144.695652 0 29.005913 8.537043 56.019478 23.229217 78.658783zM793.766957 734.608696h-73.817044A66.749217 66.749217 0 0 1 690.086957 678.934261v-33.346783A66.82713 66.82713 0 0 1 756.869565 578.782609c36.886261 0 66.782609 29.918609 66.782609 66.804869v33.346783A66.782609 66.782609 0 0 1 793.766957 734.608696zM712.347826 645.587478v33.346783a44.521739 44.521739 0 1 0 89.043478 0v-33.346783a44.521739 44.521739 0 1 0-89.043478 0z" fill="#005CB9" p-id="14028"></path><path d="M166.956522 805.632A144.217043 144.217043 0 0 0 267.130435 845.913043c38.878609 0 74.173217-15.326609 100.173913-40.281043V790.26087h6.945391H367.304348c0-18.465391-14.914783-33.391304-33.302261-33.391305H200.258783A33.313391 33.313391 0 0 0 166.956522 790.26087h-6.945392H166.956522v15.37113z m-21.292522-25.755826A144.027826 144.027826 0 0 1 122.434783 701.217391c0-79.916522 64.768-144.695652 144.695652-144.695652 79.916522 0 144.695652 64.768 144.695652 144.695652a144.027826 144.027826 0 0 1-23.229217 78.658783A55.596522 55.596522 0 0 0 334.002087 734.608696H200.258783a55.56313 55.56313 0 0 0-54.594783 45.267478zM304.027826 734.608696h-73.817043A66.749217 66.749217 0 0 1 200.347826 678.934261v-33.346783A66.82713 66.82713 0 0 1 267.130435 578.782609c36.886261 0 66.782609 29.918609 66.782608 66.804869v33.346783A66.782609 66.782609 0 0 1 304.027826 734.608696z" fill="#A6D2FF" p-id="14029"></path><path d="M155.826087 805.632C181.826783 830.586435 228.251826 857.043478 267.130435 857.043478c38.878609 0 85.303652-26.457043 111.304348-51.411478V790.26087c0-18.465391-26.045217-44.521739-44.432696-44.52174H200.258783C181.849043 745.73913 155.826087 771.784348 155.826087 790.26087v15.37113z" fill="#40A0FF" p-id="14030"></path><path d="M217.043478 595.478261m50.086957 0l0 0q50.086957 0 50.086956 50.086956l0 33.391305q0 50.086957-50.086956 50.086956l0 0q-50.086957 0-50.086957-50.086956l0-33.391305q0-50.086957 50.086957-50.086956Z" fill="#FFFFFF" p-id="14031"></path><path d="M100.173913 701.217391c0-92.215652 74.74087-166.956522 166.956522-166.956521s166.956522 74.74087 166.956522 166.956521-74.74087 166.956522-166.956522 166.956522S100.173913 793.433043 100.173913 701.217391z m66.782609 104.414609A144.217043 144.217043 0 0 0 267.130435 845.913043c38.878609 0 74.173217-15.326609 100.173913-40.281043V790.26087h6.945391H367.304348c0-18.465391-14.914783-33.391304-33.302261-33.391305H200.258783A33.313391 33.313391 0 0 0 166.956522 790.26087h-6.945392H166.956522v15.37113z m-21.292522-25.755826A55.56313 55.56313 0 0 1 200.258783 734.608696h133.743304c27.14713 0 49.753043 19.478261 54.594783 45.267478A144.027826 144.027826 0 0 0 411.826087 701.217391c0-79.927652-64.77913-144.695652-144.695652-144.695652-79.927652 0-144.695652 64.77913-144.695652 144.695652 0 29.005913 8.537043 56.019478 23.229217 78.658783zM304.027826 734.608696h-73.817043A66.749217 66.749217 0 0 1 200.347826 678.934261v-33.346783A66.82713 66.82713 0 0 1 267.130435 578.782609c36.886261 0 66.782609 29.918609 66.782608 66.804869v33.346783A66.782609 66.782609 0 0 1 304.027826 734.608696zM222.608696 645.587478v33.346783a44.521739 44.521739 0 1 0 89.043478 0v-33.346783a44.521739 44.521739 0 1 0-89.043478 0z" fill="#005CB9" p-id="14032"></path></svg>