<?xml version="1.0" standalone="no"?><!DOCTYPE svg PUBLIC "-//W3C//DTD SVG 1.1//EN" "http://www.w3.org/Graphics/SVG/1.1/DTD/svg11.dtd"><svg t="1655723925127" class="icon" viewBox="0 0 1024 1024" version="1.1" xmlns="http://www.w3.org/2000/svg" p-id="4635" xmlns:xlink="http://www.w3.org/1999/xlink" width="200" height="200"><defs><style type="text/css"></style></defs><path d="M512 512m-400.695652 0a400.695652 400.695652 0 1 0 801.391304 0 400.695652 400.695652 0 1 0-801.391304 0Z" fill="#0B77E3" fill-opacity=".2" p-id="4636"></path><path d="M176.172522 292.318609l550.934261 550.934261 133.787826-133.787827c8.704-8.704 8.793043-22.706087 0.222608-31.276521L341.248 158.319304c-8.570435-8.570435-22.572522-8.470261-31.265391 0.222609l-133.787826 133.787826z m-15.738435-15.738435l133.798956-133.787826c17.385739-17.39687 45.389913-17.586087 62.553044-0.422957l520.281043 520.281044c17.14087 17.152 16.962783 45.156174-0.422956 62.553043l-133.787826 133.787826c-8.704 8.69287-22.706087 8.793043-31.276522 0.211479L160.222609 307.856696c-8.570435-8.570435-8.481391-22.583652 0.222608-31.276522zM278.494609 410.37913l55.095652-55.095652 15.738435 15.749565-55.095653 55.095653-15.738434-15.749566z m62.964869 62.96487l55.095652-55.095652 15.738435 15.738435-55.095652 55.095652-15.738435-15.738435z m62.96487 62.96487l55.095652-55.095653 15.727304 15.738435-55.095652 55.095652-15.727304-15.738434z m62.953739 62.964869l55.095652-55.095652 15.738435 15.738435-55.095652 55.095652-15.738435-15.738435z m62.96487 62.953739l55.095652-55.095652 15.738434 15.749565-55.095652 55.095652-15.738434-15.749565z m62.964869 62.96487l55.095652-55.095652 15.738435 15.749565-55.095652 55.095652-15.738435-15.749565z m62.96487 62.964869l55.095652-55.095652 15.738435 15.749565-55.095653 55.095653-15.738434-15.749566zM349.328696 260.841739a33.391304 33.391304 0 1 1-47.226435-47.226435 33.391304 33.391304 0 0 1 47.226435 47.226435z" fill="#005CB9" p-id="4637"></path><path d="M160.434087 276.591304l133.798956-133.810087c17.385739-17.385739 45.389913-17.574957 62.553044-0.411826l520.281043 520.281044c17.14087 17.152 16.962783 45.156174-0.422956 62.553043l-133.787826 133.787826c-8.704 8.69287-22.706087 8.793043-31.276522 0.211479L160.222609 307.856696c-8.570435-8.570435-8.481391-22.583652 0.222608-31.276522z m15.738435 15.727305l550.934261 550.934261 133.787826-133.787827c8.704-8.704 8.793043-22.706087 0.222608-31.276521L341.248 158.319304c-8.570435-8.570435-22.572522-8.470261-31.265391 0.222609l-133.787826 133.787826z m-15.738435-15.738435l133.798956-133.787826c17.385739-17.39687 45.389913-17.586087 62.553044-0.422957l520.281043 520.281044c17.14087 17.152 16.962783 45.156174-0.422956 62.553043l-133.787826 133.787826c-8.704 8.69287-22.706087 8.793043-31.276522 0.211479L160.222609 307.856696c-8.570435-8.570435-8.481391-22.583652 0.222608-31.276522z m125.929739 125.929739l47.226435-47.226435 15.738435 15.749565-47.226435 47.215305-15.738435-15.738435z m62.96487 62.96487l47.215304-47.226435 15.749565 15.738435-47.226435 47.226434-15.738434-15.738434z m62.964869 62.964869l47.215305-47.226435 15.738434 15.738435-47.215304 47.226435-15.738435-15.738435z m62.953739 62.96487l47.226435-47.226435 15.738435 15.738435-47.215304 47.226435-15.749566-15.738435z m62.96487 62.953739l47.226435-47.215304 15.738434 15.738434-47.215304 47.226435-15.749565-15.749565z m62.964869 62.964869l47.226435-47.215304 15.738435 15.738435-47.226435 47.215304-15.738435-15.738435z m62.96487 62.96487l47.226435-47.226435 15.738435 15.749565-47.226435 47.215305-15.738435-15.738435zM349.328696 260.841739a33.391304 33.391304 0 1 0-47.226435-47.226435 33.391304 33.391304 0 0 0 47.226435 47.226435z" fill="#FFFFFF" p-id="4638"></path><path d="M783.582609 180.825043a22.26087 22.26087 0 0 0-31.510261 0.033392c-306.777043 308.034783-466.521043 467.756522-479.232 479.165217-5.554087 4.986435-29.540174 58.022957-71.958261 159.120696 102.166261-43.887304 155.970783-69.042087 161.435826-75.442087 4.530087-5.320348 163.283478-164.096 476.293565-476.338087a22.26087 22.26087 0 0 0 0.011131-31.499131L783.582609 180.825043z m70.789565 39.290435a44.521739 44.521739 0 0 1 0 62.976c-306.398609 305.641739-471.262609 470.51687-475.113739 475.046957-9.126957 10.696348-57.266087 33.202087-169.594435 81.463652-18.387478 7.902609-37.064348-10.607304-29.306435-29.061565 46.992696-112.005565 67.995826-158.45287 77.612522-167.090087 12.198957-10.930087 173.367652-172.087652 478.330435-478.297044a44.521739 44.521739 0 0 1 62.964869-0.133565l55.095652 55.095652zM209.753043 770.137043c6.522435-13.657043 50.42087 28.538435 37.487305 35.784348-8.626087 4.830609-26.679652 10.707478-54.171826 17.630609 6.778435-26.512696 12.332522-44.321391 16.684521-53.426087z m60.082087-106.551652a11.809391 11.809391 0 0 1-12.544-10.406956 10.874435 10.874435 0 0 1 9.96174-12.187826l38.956521-3.094261a11.798261 11.798261 0 0 1 12.53287 10.329043l5.275826 43.742609 43.898435 5.409391c5.89913 0.723478 10.406957 5.865739 10.329043 11.798261l-0.556522 41.483131a10.863304 10.863304 0 0 1-11.464347 10.76313 11.820522 11.820522 0 0 1-11.186087-11.865043l0.411826-30.987131-42.573913-5.231304a11.853913 11.853913 0 0 1-10.251131-10.284522l-5.030956-41.672348-27.759305 2.203826z" fill="#005CB9" p-id="4639"></path><path d="M378.000696 727.663304l0.244869-18.509913a11.831652 11.831652 0 0 0-10.329043-11.798261l-43.898435-5.39826-5.275826-43.742609a11.809391 11.809391 0 0 0-12.544-10.329044l-12.02087 0.957218C407.262609 526.469565 559.916522 373.804522 752.072348 180.858435a22.26087 22.26087 0 0 1 31.510261-0.033392l55.04 55.04a22.26087 22.26087 0 0 1-0.011131 31.499131A280782.592 280782.592 0 0 0 377.989565 727.663304z" fill="#40A0FF" p-id="4640"></path><path d="M248.998957 798.297043c-3.016348-9.193739-16.673391-23.151304-27.213914-28.582956 25.433043-59.570087 41.583304-94.953739 48.473044-106.184348l27.336348-2.159304 5.030956 41.672348c0.645565 5.342609 4.919652 9.627826 10.251131 10.284521l42.573913 5.231305-0.400696 30.196869c-14.625391 8.481391-49.975652 24.987826-106.050782 49.530435z" fill="#FFFFFF" p-id="4641"></path></svg>