<svg xmlns="http://www.w3.org/2000/svg" xmlns:xlink="http://www.w3.org/1999/xlink" width="858" height="336" viewBox="0 0 858 336">
  <defs>
    <linearGradient id="linear-gradient" x1="0.118" y1="0.591" x2="0.923" y2="0.616" gradientUnits="objectBoundingBox">
      <stop offset="0" stop-color="#fff"/>
      <stop offset="1" stop-color="#dbe5ee"/>
    </linearGradient>
    <clipPath id="clip-path">
      <rect id="Rectangle_28" data-name="Rectangle 28" width="288" height="299" transform="translate(310.432 14)" fill="url(#linear-gradient)"/>
    </clipPath>
    <clipPath id="clip-white-logo-name">
      <rect width="858" height="336"/>
    </clipPath>
  </defs>
  <g id="white-logo-name" clip-path="url(#clip-white-logo-name)">
    <path id="Path_160" data-name="Path 160" d="M43.848,1.4a40.687,40.687,0,0,1-16.2-3.24,43.228,43.228,0,0,1-13.23-8.748,40.955,40.955,0,0,1-8.964-12.96A38.829,38.829,0,0,1,2.16-39.42,38.829,38.829,0,0,1,5.454-55.3,41.6,41.6,0,0,1,14.418-68.31a42.734,42.734,0,0,1,13.23-8.8,40.687,40.687,0,0,1,16.2-3.24q11.88,0,20.682,4.86A39.559,39.559,0,0,1,78.84-62.1a2.524,2.524,0,0,1,.27,2,2.578,2.578,0,0,1-1.134,1.674l-12.96,8.316a2.775,2.775,0,0,1-1.944.378,2.965,2.965,0,0,1-1.836-1.026,28.672,28.672,0,0,0-7.506-6.588,18.914,18.914,0,0,0-9.882-2.484,18.167,18.167,0,0,0-7.722,1.674,20.787,20.787,0,0,0-6.318,4.482,21.157,21.157,0,0,0-4.266,6.534,19.74,19.74,0,0,0-1.566,7.722,19.615,19.615,0,0,0,1.566,7.776,20.659,20.659,0,0,0,4.266,6.426,21.264,21.264,0,0,0,6.318,4.428,18.167,18.167,0,0,0,7.722,1.674,22.726,22.726,0,0,0,8.1-1.512A13.222,13.222,0,0,0,58.32-25.6a1.4,1.4,0,0,0,.108-1.566,1.631,1.631,0,0,0-1.512-.7H44.5a2.5,2.5,0,0,1-1.836-.756,2.5,2.5,0,0,1-.756-1.836V-43.308a2.5,2.5,0,0,1,.756-1.836A2.5,2.5,0,0,1,44.5-45.9H81.648a2.8,2.8,0,0,1,1.89.7,2.719,2.719,0,0,1,.918,1.89,39.244,39.244,0,0,1,.216,4.482,47.589,47.589,0,0,1-.324,5.454,36.4,36.4,0,0,1-4.212,13.824,38.347,38.347,0,0,1-8.91,11.016,41.806,41.806,0,0,1-12.474,7.29A41.9,41.9,0,0,1,43.848,1.4ZM158.76-17.28V-2.592A2.5,2.5,0,0,1,158-.756,2.5,2.5,0,0,1,156.168,0H102.276a2.454,2.454,0,0,1-1.89-.756,2.6,2.6,0,0,1-.7-1.836V-76.464a2.6,2.6,0,0,1,.7-1.836,2.454,2.454,0,0,1,1.89-.756h16.2a2.5,2.5,0,0,1,1.836.756,2.5,2.5,0,0,1,.756,1.836v54a2.6,2.6,0,0,0,.7,1.836,2.454,2.454,0,0,0,1.89.756h32.508a2.5,2.5,0,0,1,1.836.756A2.5,2.5,0,0,1,158.76-17.28ZM225.4-75.924l-27,43.74a12.476,12.476,0,0,0-.972,2.376,8.582,8.582,0,0,0-.432,2.484V-2.592a2.507,2.507,0,0,1-.752,1.836A2.48,2.48,0,0,1,194.414,0H178.187a2.48,2.48,0,0,1-1.827-.756,2.507,2.507,0,0,1-.752-1.836V-27.216a10.314,10.314,0,0,0-.378-2.538,8.411,8.411,0,0,0-.918-2.322q-6.48-11.124-13.23-21.816T147.636-75.924a2.443,2.443,0,0,1-.216-2,1.346,1.346,0,0,1,1.4-1.026h19.224a4.45,4.45,0,0,1,2.214.648,4.274,4.274,0,0,1,1.674,1.62l13.235,23.112a1.533,1.533,0,0,0,1.29.864,1.533,1.533,0,0,0,1.29-.864L200.88-76.68a4.274,4.274,0,0,1,1.674-1.62,4.45,4.45,0,0,1,2.214-.648h19.44a1.723,1.723,0,0,1,1.566.756Q226.26-77.436,225.4-75.924ZM238.68-27.108a60.778,60.778,0,0,0,11.556,5.94,30.4,30.4,0,0,0,10.692,2.16,15.486,15.486,0,0,0,7.236-1.35,4.35,4.35,0,0,0,2.484-4.05,2.618,2.618,0,0,0-1.08-2.214,9.216,9.216,0,0,0-2.862-1.35,27.068,27.068,0,0,0-4.158-.864q-2.376-.324-4.86-.864-2.376-.432-5.562-1.026a47.557,47.557,0,0,1-6.534-1.728,46.2,46.2,0,0,1-6.642-2.862,22.778,22.778,0,0,1-5.886-4.428,20.815,20.815,0,0,1-4.158-6.426,22.619,22.619,0,0,1-1.566-8.8q0-7.452,2.916-12.312a23.061,23.061,0,0,1,7.4-7.722,29.4,29.4,0,0,1,9.99-4,52.974,52.974,0,0,1,10.692-1.134A46.789,46.789,0,0,1,274.59-77.49a51.988,51.988,0,0,1,13.77,7.722,2.734,2.734,0,0,1,.972,1.836,2.687,2.687,0,0,1-.54,1.944L280.368-54a2.764,2.764,0,0,1-1.728,1.08,2.338,2.338,0,0,1-1.944-.432,43.841,43.841,0,0,0-10.26-4.914,30,30,0,0,0-8.748-1.458q-1.188,0-2.754.054a13.133,13.133,0,0,0-2.97.432A5.346,5.346,0,0,0,249.642-58a3.1,3.1,0,0,0-.918,2.376q0,1.512,2.268,2.7a28.809,28.809,0,0,0,5.184,2.052,52.619,52.619,0,0,0,5.616,1.35q2.7.486,3.456.594a79.2,79.2,0,0,1,8.532,2.214,31.158,31.158,0,0,1,8.694,4.32,24.247,24.247,0,0,1,6.8,7.452,22.033,22.033,0,0,1,2.754,11.5,25.483,25.483,0,0,1-2.268,11.178,20.709,20.709,0,0,1-6.318,7.722,27.5,27.5,0,0,1-9.72,4.482A50.52,50.52,0,0,1,261.144,1.4,56.46,56.46,0,0,1,250.668.486,52.242,52.242,0,0,1,241.6-2.052a47.91,47.91,0,0,1-7.83-3.834,58.781,58.781,0,0,1-6.642-4.7,2.41,2.41,0,0,1-.972-1.782,2.776,2.776,0,0,1,.54-2l8.316-11.988a2.764,2.764,0,0,1,1.728-1.08A2.582,2.582,0,0,1,238.68-27.108ZM325.85,0H309.623a2.435,2.435,0,0,1-1.88-.756,2.607,2.607,0,0,1-.7-1.836V-76.356a2.607,2.607,0,0,1,.7-1.836,2.435,2.435,0,0,1,1.88-.756H325.85a2.48,2.48,0,0,1,1.827.756,2.507,2.507,0,0,1,.752,1.836V-2.592a2.507,2.507,0,0,1-.752,1.836A2.48,2.48,0,0,1,325.85,0Zm29.038-27.108a60.777,60.777,0,0,0,11.556,5.94,30.4,30.4,0,0,0,10.692,2.16,15.486,15.486,0,0,0,7.236-1.35,4.35,4.35,0,0,0,2.484-4.05,2.618,2.618,0,0,0-1.08-2.214,9.216,9.216,0,0,0-2.862-1.35,27.068,27.068,0,0,0-4.158-.864q-2.376-.324-4.86-.864-2.376-.432-5.562-1.026a47.558,47.558,0,0,1-6.534-1.728,46.2,46.2,0,0,1-6.642-2.862,22.778,22.778,0,0,1-5.886-4.428,20.815,20.815,0,0,1-4.158-6.426,22.619,22.619,0,0,1-1.566-8.8q0-7.452,2.916-12.312a23.061,23.061,0,0,1,7.4-7.722,29.4,29.4,0,0,1,9.99-4,52.974,52.974,0,0,1,10.692-1.134A46.789,46.789,0,0,1,390.8-77.49a51.988,51.988,0,0,1,13.77,7.722,2.734,2.734,0,0,1,.972,1.836,2.687,2.687,0,0,1-.54,1.944L396.576-54a2.764,2.764,0,0,1-1.728,1.08,2.338,2.338,0,0,1-1.944-.432,43.841,43.841,0,0,0-10.26-4.914,30,30,0,0,0-8.748-1.458q-1.188,0-2.754.054a13.133,13.133,0,0,0-2.97.432A5.346,5.346,0,0,0,365.85-58a3.1,3.1,0,0,0-.918,2.376q0,1.512,2.268,2.7a28.808,28.808,0,0,0,5.184,2.052A52.619,52.619,0,0,0,378-49.518q2.7.486,3.456.594a79.2,79.2,0,0,1,8.532,2.214,31.158,31.158,0,0,1,8.694,4.32,24.247,24.247,0,0,1,6.8,7.452,22.033,22.033,0,0,1,2.754,11.5,25.483,25.483,0,0,1-2.268,11.178,20.709,20.709,0,0,1-6.318,7.722,27.5,27.5,0,0,1-9.72,4.482A50.52,50.52,0,0,1,377.352,1.4,56.46,56.46,0,0,1,366.876.486,52.242,52.242,0,0,1,357.8-2.052a47.91,47.91,0,0,1-7.83-3.834,58.784,58.784,0,0,1-6.642-4.7,2.41,2.41,0,0,1-.972-1.782,2.776,2.776,0,0,1,.54-2l8.316-11.988a2.764,2.764,0,0,1,1.728-1.08A2.582,2.582,0,0,1,354.888-27.108Z" transform="translate(82 201)" fill="url(#linear-gradient)"/>
    <g id="Mask_Group_8" data-name="Mask Group 8" transform="translate(197.568 -2)" clip-path="url(#clip-path)">
      <g id="Component_10_1" data-name="Component 10 – 1" transform="translate(302.831 24.817)">
        <g id="Component_7_1" data-name="Component 7 – 1" transform="translate(24.034 0) rotate(7)">
          <path id="Rectangle_23" data-name="Rectangle 23" d="M0,0,37,.232A14.133,14.133,0,0,1,51.006,14.24l.343,54.609A17.93,17.93,0,0,1,33.26,86.937L.545,86.732Z" transform="translate(103.54 91.54) rotate(38.016)" fill="url(#linear-gradient)"/>
          <path id="Rectangle_20" data-name="Rectangle 20" d="M13.833,0l19.23.121A14.133,14.133,0,0,1,47.07,14.128l.992,157.923a13.711,13.711,0,0,1-13.833,13.833L15,185.763A14.133,14.133,0,0,1,.992,171.756L0,13.833A13.711,13.711,0,0,1,13.833,0Z" transform="translate(122.433 0) rotate(38.016)" fill="url(#linear-gradient)"/>
          <path id="Rectangle_21" data-name="Rectangle 21" d="M13.833,0,29.894.1A14.133,14.133,0,0,1,43.9,14.108l.462,73.633a13.711,13.711,0,0,1-13.833,13.832l-16.062-.1A14.133,14.133,0,0,1,.463,87.466L0,13.833A13.711,13.711,0,0,1,13.833,0Z" transform="translate(62.92 60.367) rotate(38.016)" fill="url(#linear-gradient)"/>
          <path id="Rectangle_22" data-name="Rectangle 22" d="M14.41.12,33.556,0A13.714,13.714,0,0,1,47.394,13.833L47,77.007A14.136,14.136,0,0,1,32.985,91.014l-19.146.12A13.714,13.714,0,0,1,0,77.3L.4,14.127A14.136,14.136,0,0,1,14.41.12Z" transform="translate(101.307 159.356) rotate(126.996)" fill="url(#linear-gradient)"/>
        </g>
        <g id="Component_7_2" data-name="Component 7 – 2" transform="translate(279.386 277.358) rotate(-173)">
          <path id="Rectangle_23-2" data-name="Rectangle 23" d="M0,0,37,.232A14.133,14.133,0,0,1,51.006,14.24l.343,54.609A17.93,17.93,0,0,1,33.26,86.937L.545,86.732Z" transform="translate(109.924 91.542) rotate(38.016)" fill="url(#linear-gradient)"/>
          <path id="Rectangle_20-2" data-name="Rectangle 20" d="M13.833,0,34.278.129A14.133,14.133,0,0,1,48.286,14.136l1.01,160.93A13.711,13.711,0,0,1,35.463,188.9l-20.445-.128A14.133,14.133,0,0,1,1.011,174.763L0,13.833A13.711,13.711,0,0,1,13.833,0Z" transform="translate(127.286 0) rotate(38.016)" fill="url(#linear-gradient)"/>
          <path id="Rectangle_21-2" data-name="Rectangle 21" d="M13.833,0,29.894.1A14.133,14.133,0,0,1,43.9,14.108l.462,73.633a13.711,13.711,0,0,1-13.833,13.832l-16.062-.1A14.133,14.133,0,0,1,.463,87.466L0,13.833A13.711,13.711,0,0,1,13.833,0Z" transform="translate(62.92 60.36) rotate(38.016)" fill="url(#linear-gradient)"/>
          <path id="Rectangle_22-2" data-name="Rectangle 22" d="M14.41.12,33.556,0A13.714,13.714,0,0,1,47.394,13.833L47,77.007A14.136,14.136,0,0,1,32.985,91.014l-19.146.12A13.714,13.714,0,0,1,0,77.3L.4,14.127A14.136,14.136,0,0,1,14.41.12Z" transform="translate(101.307 159.348) rotate(126.996)" fill="url(#linear-gradient)"/>
        </g>
      </g>
    </g>
    <path id="Path_162" data-name="Path 162" d="M.687-4.425l2.672-.26a3.26,3.26,0,0,0,.979,1.976,2.959,2.959,0,0,0,1.99.631,3.058,3.058,0,0,0,2-.561A1.67,1.67,0,0,0,9-3.952a1.238,1.238,0,0,0-.283-.821,2.262,2.262,0,0,0-.988-.589q-.482-.167-2.2-.594A7.459,7.459,0,0,1,2.431-7.3a3.539,3.539,0,0,1-1.252-2.737,3.5,3.5,0,0,1,.589-1.944,3.688,3.688,0,0,1,1.7-1.378,6.8,6.8,0,0,1,2.677-.473A5.741,5.741,0,0,1,10-12.71a3.962,3.962,0,0,1,1.359,3l-2.746.121A2.332,2.332,0,0,0,7.853-11.1a2.768,2.768,0,0,0-1.74-.459,3.138,3.138,0,0,0-1.874.492.991.991,0,0,0-.436.844,1.045,1.045,0,0,0,.408.826,7.219,7.219,0,0,0,2.523.909A13.317,13.317,0,0,1,9.7-7.51a3.82,3.82,0,0,1,1.5,1.382,4.043,4.043,0,0,1,.543,2.166A4.005,4.005,0,0,1,11.1-1.772,3.892,3.892,0,0,1,9.259-.255,7.7,7.7,0,0,1,6.3.241,5.892,5.892,0,0,1,2.338-.951,5.186,5.186,0,0,1,.687-4.425ZM20.871-6.717a8.65,8.65,0,0,1,.622-3.488,6.4,6.4,0,0,1,1.266-1.865,5.3,5.3,0,0,1,1.758-1.225,7.467,7.467,0,0,1,2.932-.538,6.386,6.386,0,0,1,4.81,1.865,7.147,7.147,0,0,1,1.8,5.186,7.123,7.123,0,0,1-1.791,5.154A6.336,6.336,0,0,1,27.485.232a6.4,6.4,0,0,1-4.824-1.851A7.024,7.024,0,0,1,20.871-6.717ZM23.7-6.81a5.1,5.1,0,0,0,1.067,3.5,3.476,3.476,0,0,0,2.709,1.192,3.446,3.446,0,0,0,2.7-1.183,5.2,5.2,0,0,0,1.053-3.549A5.114,5.114,0,0,0,30.2-10.335a3.469,3.469,0,0,0-2.723-1.15,3.492,3.492,0,0,0-2.737,1.164A5.139,5.139,0,0,0,23.7-6.81ZM43.6,0V-13.6H52.92v2.3H46.343v3.219H52.02v2.3H46.343V0ZM65.617,0V-11.3H61.582v-2.3H72.39v2.3H68.364V0ZM83.464,0,80.217-13.6h2.811l2.05,9.342L87.564-13.6H90.83l2.384,9.5L95.3-13.6h2.765L94.763,0H91.85L89.141-10.168,86.442,0Zm34.592,0h-2.987l-1.187-3.089h-5.437L107.321,0h-2.913l5.3-13.6h2.9ZM113-5.381l-1.874-5.047-1.837,5.047ZM126.893,0V-13.6h5.78a9.893,9.893,0,0,1,3.168.366,3.125,3.125,0,0,1,1.582,1.3,3.918,3.918,0,0,1,.594,2.143,3.631,3.631,0,0,1-.9,2.528A4.322,4.322,0,0,1,134.426-6a6.407,6.407,0,0,1,1.47,1.141,15.5,15.5,0,0,1,1.563,2.208L139.121,0h-3.284l-1.985-2.959a19.2,19.2,0,0,0-1.447-2,2.107,2.107,0,0,0-.826-.566,4.526,4.526,0,0,0-1.382-.153h-.557V0Zm2.746-7.849h2.032a10.492,10.492,0,0,0,2.468-.167,1.479,1.479,0,0,0,.77-.575,1.771,1.771,0,0,0,.278-1.021,1.631,1.631,0,0,0-.366-1.109,1.682,1.682,0,0,0-1.034-.533q-.334-.046-2-.046h-2.143ZM147.977,0V-13.6h10.084v2.3h-7.338v3.015h6.828v2.292h-6.828v3.7h7.6V0Zm19.349-4.425L170-4.685a3.26,3.26,0,0,0,.979,1.976,2.959,2.959,0,0,0,1.99.631,3.058,3.058,0,0,0,2-.561,1.67,1.67,0,0,0,.673-1.313,1.238,1.238,0,0,0-.283-.821,2.262,2.262,0,0,0-.988-.589q-.482-.167-2.2-.594a7.459,7.459,0,0,1-3.1-1.345,3.539,3.539,0,0,1-1.252-2.737,3.5,3.5,0,0,1,.589-1.944,3.688,3.688,0,0,1,1.7-1.378,6.8,6.8,0,0,1,2.677-.473,5.741,5.741,0,0,1,3.855,1.123,3.962,3.962,0,0,1,1.359,3l-2.746.121a2.332,2.332,0,0,0-.756-1.508,2.768,2.768,0,0,0-1.74-.459,3.138,3.138,0,0,0-1.874.492.991.991,0,0,0-.436.844,1.045,1.045,0,0,0,.408.826,7.219,7.219,0,0,0,2.523.909,13.317,13.317,0,0,1,2.964.979,3.82,3.82,0,0,1,1.5,1.382,4.043,4.043,0,0,1,.543,2.166,4.005,4.005,0,0,1-.649,2.189A3.892,3.892,0,0,1,175.9-.255a7.7,7.7,0,0,1-2.959.5,5.892,5.892,0,0,1-3.961-1.192A5.186,5.186,0,0,1,167.326-4.425Z" transform="translate(304 227)" fill="url(#linear-gradient)"/>
  </g>
</svg>
