<svg xmlns="http://www.w3.org/2000/svg" xmlns:xlink="http://www.w3.org/1999/xlink" width="282" height="191" viewBox="0 0 282 191">
  <defs>
    <linearGradient id="linear-gradient" y1="0.613" x2="0.98" y2="0.102" gradientUnits="objectBoundingBox">
      <stop offset="0" stop-color="#c9e8fb"/>
      <stop offset="0.486" stop-color="#fff"/>
      <stop offset="1" stop-color="#eff"/>
    </linearGradient>
    <clipPath id="clip-cookie">
      <rect width="282" height="191"/>
    </clipPath>
  </defs>
  <g id="cookie" clip-path="url(#clip-cookie)">
    <g id="Path_968" data-name="Path 968" fill="url(#linear-gradient)">
      <path d="M 281.5 190.5 L 0.5 190.5 L 0.5 0.5 L 129 0.5 L 228.6234588623047 0.5 C 228.2848968505859 1.49214768409729 227.6597595214844 3.493979215621948 227.1679229736328 6.037892818450928 C 226.5235748291016 9.370750427246094 226.0068511962891 14.28235721588135 227.2045288085938 18.75435638427734 C 228.4022216796875 23.22646522521973 231.3032836914062 27.21760749816895 233.5260772705078 29.77828598022461 C 235.5377960205078 32.0958366394043 237.3310394287109 33.65967178344727 237.9103698730469 34.14670181274414 C 237.8956604003906 34.8962287902832 237.8884429931641 37.23757171630859 238.2591400146484 40.17714309692383 C 238.6697540283203 43.43314361572266 239.6448974609375 48.04521560668945 241.9585723876953 51.52674865722656 C 244.2792205810547 55.01874923706055 247.91796875 57.33625030517578 250.5618591308594 58.66546249389648 C 252.815185546875 59.79832077026367 254.7109222412109 60.41616058349609 255.4549560546875 60.63813400268555 C 255.5510864257812 61.45248413085938 255.8624420166016 63.60441207885742 256.6935119628906 66.17713928222656 C 257.6585388183594 69.16468048095703 259.5373229980469 73.28678894042969 263.0074768066406 75.95867919921875 C 268.8507080078125 80.45774841308594 279.0007019042969 80.8167724609375 281.5 80.83457183837891 L 281.5 153 L 281.5 190.5 Z" stroke="none"/>
      <path d="M 1 1 L 1 190 L 281 190 L 281 81.32753753662109 C 277.8230285644531 81.26200103759766 268.3355712890625 80.69221496582031 262.7024230957031 76.3548583984375 C 259.8752136230469 74.17800140380859 257.6328125 70.71174621582031 256.2176818847656 66.33081817626953 C 255.4683380126953 64.01105499267578 255.1340637207031 62.02154541015625 254.9996490478516 61.0211181640625 C 254.0941925048828 60.73539733886719 252.3537139892578 60.12596130371094 250.3372802734375 59.1121826171875 C 247.6393585205078 57.75578308105469 243.9234313964844 55.38674926757812 241.5421447753906 51.80349731445312 C 239.6415405273438 48.94354248046875 238.3700714111328 45.05293273925781 237.7630767822266 40.23971557617188 C 237.4218444824219 37.53404235839844 237.3973846435547 35.32400512695312 237.4070281982422 34.37495422363281 C 236.6779174804688 33.74900817871094 235.0023803710938 32.24176025390625 233.1484680175781 30.10606384277344 C 229.8652191162109 26.32371520996094 227.7028503417969 22.54795837402344 226.7215270996094 18.88371276855469 C 225.7402496337891 15.2196044921875 225.7252502441406 10.86575317382812 226.6770324707031 5.9429931640625 C 227.0816345214844 3.850234985351562 227.5767211914062 2.116500854492188 227.9324951171875 1 L 1 1 M 0 0 L 129 0 C 158.2368469238281 0 229.3333129882812 0 229.3333129882812 0 C 229.3333129882812 0 225.4166412353516 10.14582824707031 227.6875 18.625 C 229.9583129882812 27.10417175292969 238.4166870117188 33.91667175292969 238.4166870117188 33.91667175292969 C 238.4166870117188 33.91667175292969 238 44.66667175292969 242.375 51.25 C 246.75 57.83332824707031 255.9166870117188 60.25 255.9166870117188 60.25 C 255.9166870117188 60.25 256.7916564941406 70.54167938232422 263.3125 75.5625 C 269.8333129882812 80.58332061767578 282 80.33330535888672 282 80.33332061767578 C 282 103.6666793823242 282 132.055419921875 282 153 L 282 191 L 0 191 L 0 0 Z" stroke="none" fill="#64c0dc"/>
    </g>
    <circle id="Ellipse_38" data-name="Ellipse 38" cx="2" cy="2" r="2" transform="translate(234 14)" fill="#64c0dc"/>
    <circle id="Ellipse_39" data-name="Ellipse 39" cx="2" cy="2" r="2" transform="translate(234 59)" fill="#64c0dc"/>
    <circle id="Ellipse_40" data-name="Ellipse 40" cx="2" cy="2" r="2" transform="translate(259 86)" fill="#64c0dc"/>
  </g>
</svg>
