<svg width="48" height="48" viewBox="0 0 48 48" fill="none" xmlns="http://www.w3.org/2000/svg">
<path d="M47.8289 14.8299L43.5245 4.94187C43.2754 4.36975 42.7112 4 42.0872 4H5.91293C5.28884 4 4.72469 4.36975 4.47567 4.94187L0.170983 14.8303C-0.144047 15.5542 -0.016783 16.4101 0.495212 17.011L22.7983 43.1823C23.0966 43.5324 23.5313 43.7331 23.9912 43.7332H23.9915C24.4512 43.7332 24.8859 43.5326 25.1843 43.1828L32.6832 34.39C32.9381 34.0911 32.9024 33.6422 32.6035 33.3873C32.3048 33.1324 31.8558 33.1681 31.6009 33.467L25.6947 40.3923L35.006 16.4426H46.1198L33.682 31.0265C33.4271 31.3253 33.4628 31.7742 33.7617 32.0291C34.0605 32.284 34.5094 32.2484 34.7643 31.9495L47.5043 17.0112C48.0168 16.4103 48.1442 15.5541 47.8289 14.8299ZM46.3603 15.0201H35.9169L42.4529 6.044L46.3603 15.0201ZM16.1242 24.2946L22.4608 40.5933L1.87985 16.4425H13.0714L15.0248 21.467C15.1342 21.7485 15.403 21.9208 15.6879 21.9207C15.7735 21.9207 15.8607 21.905 15.9454 21.8721C16.3115 21.7298 16.4929 21.3176 16.3506 20.9515L14.5975 16.4424H33.4795L24.0385 40.7257L17.4499 23.7791C17.3076 23.413 16.8954 23.2316 16.5293 23.374C16.1633 23.5163 15.9818 23.9284 16.1242 24.2946ZM26.7304 5.42247L28.3575 7.84228C28.4949 8.04646 28.7195 8.15674 28.9483 8.15674C29.0848 8.15674 29.2228 8.11748 29.3445 8.03564C29.6706 7.81649 29.7571 7.37458 29.5379 7.04855L28.4445 5.42247H41.1457L34.5423 14.4912L31.2568 9.60492C31.0377 9.27888 30.5957 9.1923 30.2697 9.41155C29.9438 9.63071 29.8572 10.0726 30.0764 10.3987L33.1838 15.0201H14.8933L21.3467 5.42247H26.7304ZM13.5348 14.4912L6.93142 5.42247H19.6327L13.5348 14.4912ZM5.57609 5.9778L12.1602 15.0201H1.63983L5.57609 5.9778Z" fill="black"/>
<path d="M10.7955 36.4693C10.4481 36.2481 10.0178 36.2198 9.64436 36.3941L5.96499 38.1112C5.40169 38.374 5.13029 39.0347 5.34726 39.6151C6.04816 41.4905 7.64304 42.5054 10.0877 42.632C10.1082 42.6331 10.1287 42.6337 10.1491 42.6337C10.4553 42.6337 10.754 42.5152 10.9768 42.3036C11.2142 42.0782 11.3504 41.7613 11.3504 41.4342V37.4807C11.3505 37.0688 11.143 36.6907 10.7955 36.4693ZM9.928 41.1959C7.66997 41.0091 7.00141 39.8909 6.75617 39.3118L9.928 37.8316V41.1959Z" fill="black"/>
<path d="M9.31728 32.5614C9.4069 32.1593 9.28675 31.7452 8.99571 31.4536L6.12763 28.5795C5.68856 28.1394 4.97505 28.1095 4.50336 28.5112C2.97904 29.8091 2.56823 31.6545 3.28221 33.996C3.3778 34.3096 3.60085 34.5735 3.89416 34.7201C4.06182 34.8038 4.24627 34.8462 4.43109 34.8462C4.56907 34.8462 4.70724 34.8226 4.83868 34.775L8.5556 33.4278C8.94289 33.2874 9.22767 32.9635 9.31728 32.5614ZM4.57799 33.3564C3.98425 31.1699 4.80758 30.1603 5.26865 29.7324L7.741 32.21L4.57799 33.3564Z" fill="black"/>
<path d="M42.1123 38.1112L38.4328 36.3941C38.0595 36.2199 37.6292 36.248 37.2816 36.4693C36.9342 36.6906 36.7267 37.0687 36.7267 37.4807V41.4342C36.7267 41.7614 36.8629 42.0783 37.1002 42.3036C37.3231 42.5152 37.6218 42.6337 37.928 42.6337C37.9484 42.6337 37.9689 42.6331 37.9894 42.632C40.434 42.5055 42.029 41.4905 42.7299 39.6151C42.9469 39.0347 42.6756 38.3741 42.1123 38.1112ZM38.1493 41.1959V37.8315L41.3211 39.3117C41.0758 39.8909 40.4073 41.009 38.1493 41.1959Z" fill="black"/>
<path d="M43.5739 28.5112C43.1021 28.1094 42.3886 28.1394 41.9495 28.5795L39.0815 31.4536C38.7905 31.7452 38.6704 32.1593 38.76 32.5614C38.8496 32.9635 39.1344 33.2874 39.5218 33.4278L43.2386 34.7749C43.3701 34.8226 43.5083 34.8462 43.6463 34.8462C43.8311 34.8462 44.0155 34.8038 44.1832 34.7201C44.4764 34.5735 44.6995 34.3095 44.7951 33.996C45.509 31.6545 45.0982 29.8091 43.5739 28.5112ZM43.4993 33.3564L40.3363 32.2101L42.8086 29.7325C43.2696 30.1603 44.0929 31.1698 43.4993 33.3564Z" fill="black"/>
</svg>
